<svg width="112" height="30" viewBox="0 0 112 30" fill="none" xmlns="http://www.w3.org/2000/svg">
<g clip-path="url(#clip0_3_467)">
<path fill-rule="evenodd" clip-rule="evenodd" d="M75.6171 24.5355C76.4061 23.8245 76.7991 22.9035 76.7991 21.7715C76.7991 20.8515 76.5301 20.0805 75.9911 19.4645C75.4501 18.8465 74.6091 18.3075 73.4641 17.8465C72.5281 17.4775 71.8831 17.1355 71.5281 16.8195C71.1201 16.4775 70.9171 16.0425 70.9171 15.5165C70.9171 15.0415 71.0951 14.6405 71.4501 14.3115C71.8701 13.9435 72.4561 13.7585 73.2061 13.7585C74.1551 13.7585 75.0031 13.9625 75.7531 14.3705L76.2861 12.6325C75.4831 12.2115 74.4771 12.0005 73.2661 12.0005C71.9081 12.0005 70.8221 12.3495 70.0081 13.0485C69.1911 13.7465 68.7831 14.6435 68.7831 15.7375C68.7831 17.4115 69.9471 18.6845 72.2771 19.5535C73.1331 19.8705 73.7461 20.2135 74.1131 20.5825C74.4821 20.9515 74.6661 21.4065 74.6661 21.9465C74.6661 22.5525 74.4431 23.0385 73.9961 23.4005C73.5471 23.7625 72.9221 23.9445 72.1191 23.9445C71.0001 23.9445 69.9731 23.6605 69.0371 23.0945L68.5431 24.8715C69.4121 25.4245 70.5601 25.7005 71.9921 25.7005C73.5431 25.7005 74.7501 25.3125 75.6171 24.5355ZM42.4051 25.5035H40.1341L38.8901 21.5945H34.5661L33.3811 25.5035H31.1701L35.4541 12.1955H38.1001L42.4051 25.5035ZM38.5151 19.9545L37.3901 16.4795C37.2711 16.1245 37.0481 15.2885 36.7191 13.9725H36.6791C36.5481 14.5385 36.3371 15.3745 36.0471 16.4795L34.9421 19.9545H38.5151ZM52.0991 24.4565C52.9811 23.5095 53.4221 22.2195 53.4221 20.5875C53.4221 19.1265 53.0441 17.9485 52.2861 17.0525C51.5301 16.1575 50.5851 15.7105 49.4531 15.7105C48.0051 15.7105 46.9261 16.2825 46.2151 17.4285H46.1751L46.0561 15.9075H44.1811C44.2331 16.9875 44.2601 18.0405 44.2601 19.0665V29.4135H46.3921V24.3585H46.4321C46.9851 25.2665 47.8931 25.7205 49.1571 25.7205C50.3281 25.7205 51.3091 25.2995 52.0991 24.4565ZM51.2501 20.6655C51.2501 19.7315 51.0401 18.9615 50.6181 18.3555C50.1571 17.7235 49.5381 17.4075 48.7621 17.4075C48.2361 17.4075 47.7581 17.5835 47.3311 17.9305C46.9031 18.2805 46.6231 18.7375 46.4921 19.3035C46.4261 19.5675 46.3931 19.7835 46.3931 19.9535V21.5535C46.3931 22.2515 46.6071 22.8405 47.0351 23.3215C47.4631 23.8025 48.0191 24.0425 48.7031 24.0425C49.5061 24.0425 50.1311 23.7325 50.5781 23.1145C51.0261 22.4955 51.2501 21.6795 51.2501 20.6655ZM63.1351 24.4565C64.0181 23.5095 64.4591 22.2195 64.4591 20.5875C64.4591 19.1265 64.0801 17.9485 63.3251 17.0525C62.5671 16.1575 61.6221 15.7105 60.4911 15.7105C59.0421 15.7105 57.9631 16.2825 57.2531 17.4285H57.2131L57.0941 15.9075H55.2191C55.2711 16.9875 55.2981 18.0405 55.2981 19.0665V29.4135H57.4301V24.3585H57.4701C58.0221 25.2665 58.9301 25.7205 60.1941 25.7205C61.3651 25.7205 62.3461 25.2995 63.1351 24.4565ZM62.2871 20.6655C62.2871 19.7315 62.0761 18.9615 61.6541 18.3555C61.1931 17.7235 60.5761 17.4075 59.7991 17.4075C59.2721 17.4075 58.7951 17.5835 58.3671 17.9305C57.9391 18.2805 57.6601 18.7375 57.5291 19.3035C57.4641 19.5675 57.4301 19.7835 57.4301 19.9535V21.5535C57.4301 22.2515 57.6441 22.8405 58.0701 23.3215C58.4981 23.8015 59.0541 24.0425 59.7401 24.0425C60.5431 24.0425 61.1681 23.7325 61.6151 23.1145C62.0631 22.4955 62.2871 21.6795 62.2871 20.6655ZM83.8481 17.5075H81.4981V22.1665C81.4981 23.3515 81.9121 23.9435 82.7421 23.9435C83.1231 23.9435 83.4391 23.9105 83.6891 23.8445L83.7481 25.4635C83.3281 25.6205 82.7751 25.6995 82.0901 25.6995C81.2481 25.6995 80.5901 25.4425 80.1151 24.9295C79.6421 24.4155 79.4041 23.5535 79.4041 22.3425V17.5055H78.0041V15.9055H79.4041V14.1485L81.4981 13.5165V15.9055H83.8481V17.5075ZM93.1871 24.2595C94.0291 23.3125 94.4511 22.1015 94.4511 20.6265C94.4511 19.1915 94.0431 18.0205 93.2251 17.1135C92.3701 16.1785 91.2371 15.7115 89.8291 15.7115C88.3681 15.7115 87.2061 16.1855 86.3451 17.1335C85.4821 18.0805 85.0521 19.2985 85.0521 20.7855C85.0521 22.2065 85.4701 23.3855 86.3061 24.3195C87.1421 25.2535 88.2631 25.7205 89.6711 25.7205C91.1321 25.7205 92.3041 25.2345 93.1871 24.2595ZM92.2391 20.6955C92.2391 19.8105 92.0501 19.0515 91.6671 18.4185C91.2201 17.6525 90.5811 17.2705 89.7531 17.2705C88.8961 17.2705 88.2451 17.6535 87.7981 18.4185C87.4151 19.0525 87.2261 19.8235 87.2261 20.7355C87.2261 21.6205 87.4151 22.3795 87.7981 23.0115C88.2591 23.7775 88.9031 24.1595 89.7341 24.1595C90.5481 24.1595 91.1871 23.7695 91.6481 22.9915C92.0411 22.3465 92.2391 21.5795 92.2391 20.6955ZM100.709 17.7235C100.945 17.7235 101.17 17.7435 101.381 17.7825V15.7495C101.223 15.7245 101.045 15.7105 100.848 15.7105C100.295 15.7105 99.7821 15.8815 99.3071 16.2245C98.8211 16.6055 98.4661 17.1135 98.2411 17.7445H98.1821L98.1041 15.9085H96.2471C96.3001 16.8165 96.3271 17.8235 96.3271 18.9295L96.3071 25.5035H98.4381V20.4685C98.4381 19.7055 98.6161 19.0735 98.9711 18.5735C99.3791 18.0065 99.9591 17.7235 100.709 17.7235ZM110.916 20.2515C110.916 20.6335 110.891 20.9555 110.838 21.2185H104.442C104.467 22.1665 104.776 22.8915 105.37 23.3915C105.909 23.8385 106.606 24.0625 107.462 24.0625C108.409 24.0625 109.273 23.9115 110.05 23.6085L110.384 25.0885C109.476 25.4845 108.404 25.6815 107.167 25.6815C105.679 25.6815 104.511 25.2435 103.661 24.3685C102.813 23.4935 102.388 22.3185 102.388 20.8445C102.388 19.3975 102.783 18.1925 103.574 17.2315C104.402 16.2055 105.521 15.6925 106.929 15.6925C108.312 15.6925 109.359 16.2055 110.07 17.2315C110.633 18.0465 110.916 19.0545 110.916 20.2515ZM108.469 18.0595C108.758 18.5205 108.897 19.0665 108.883 19.6985V19.6975H104.442C104.507 19.0535 104.718 18.5005 105.073 18.0395C105.506 17.4595 106.073 17.1705 106.77 17.1705C107.533 17.1705 108.1 17.4665 108.469 18.0595Z" fill="#63686B"/>
<path fill-rule="evenodd" clip-rule="evenodd" d="M59.8482 7.43254H58.8012V0.555542H59.8482V7.43254ZM36.7522 6.66654C37.4572 6.07154 37.8102 5.18554 37.8102 4.00854C37.8102 2.96054 37.4832 2.15554 36.8312 1.59254C36.2492 1.09454 35.3862 0.845542 34.2412 0.845542C33.5932 0.845542 32.9932 0.891542 32.4362 0.981542V7.41254C32.8632 7.46454 33.3732 7.49054 33.9692 7.49054C35.1712 7.49054 36.0992 7.21554 36.7522 6.66654ZM36.0992 2.28154C36.5032 2.68954 36.7052 3.27454 36.7052 4.03754C36.7052 4.89154 36.4852 5.54154 36.0492 5.98754C35.6132 6.43354 34.9942 6.65654 34.1922 6.65654C33.8492 6.65654 33.6132 6.64754 33.4842 6.62754V1.73854C33.7172 1.69254 33.9982 1.67054 34.3282 1.67054C35.1052 1.67054 35.6952 1.87454 36.0992 2.28154ZM43.6692 5.03654C43.6692 5.76154 43.4622 6.35554 43.0482 6.82154C42.6142 7.30054 42.0392 7.53954 41.3212 7.53954C40.6292 7.53954 40.0782 7.31054 39.6672 6.85054C39.2572 6.39154 39.0522 5.81254 39.0522 5.11454C39.0522 4.38454 39.2632 3.78554 39.6872 3.32054C40.1112 2.85554 40.6812 2.62254 41.3992 2.62254C42.0912 2.62254 42.6472 2.85154 43.0682 3.31054C43.4682 3.75654 43.6692 4.33254 43.6692 5.03654ZM42.3012 3.95154C42.4882 4.26254 42.5822 4.63554 42.5822 5.07054C42.5822 5.50554 42.4852 5.88154 42.2912 6.19854C42.0652 6.58154 41.7512 6.77254 41.3512 6.77254C40.9432 6.77254 40.6272 6.58454 40.4002 6.20854C40.2132 5.89754 40.1192 5.52454 40.1192 5.08954C40.1192 4.64154 40.2122 4.26254 40.4002 3.95154C40.6202 3.57554 40.9402 3.38754 41.3612 3.38754C41.7682 3.38754 42.0812 3.57554 42.3012 3.95154ZM51.5252 2.71854L51.5248 2.71954H50.4962L49.9242 4.92154C49.7822 5.47154 49.6752 5.98854 49.6042 6.47354H49.5752C49.4782 5.97554 49.3522 5.45854 49.1972 4.92154L48.5562 2.71954H47.7022L47.0332 4.96954C46.8512 5.57654 46.7222 6.07854 46.6442 6.47254H46.6252C46.5402 5.99454 46.4342 5.48954 46.3052 4.95954L45.7722 2.71854H44.6952L46.0822 7.43254H47.0532L47.7022 5.38554C47.8642 4.88754 47.9902 4.38054 48.0812 3.86254H48.1002C48.1982 4.36654 48.3242 4.87454 48.4792 5.38554L49.0902 7.43254H50.0502L51.5248 2.71954H51.5252V2.71854ZM55.9102 7.43254H56.9582V4.60854C56.9582 3.91654 56.7772 3.39554 56.4152 3.04654C56.1242 2.76154 55.7582 2.61954 55.3182 2.61954C54.9702 2.61954 54.6522 2.70854 54.3682 2.88454C54.1292 3.03554 53.9472 3.22454 53.8252 3.45354H53.7962L53.7472 2.71654H52.8262C52.8512 3.20254 52.8642 3.65154 52.8642 4.06554V7.43154H53.9122V4.63554C53.9122 4.32654 54.0102 4.05654 54.2032 3.82754C54.3982 3.59854 54.6492 3.48454 54.9602 3.48454C55.5942 3.48454 55.9102 3.90054 55.9102 4.73254V7.43254ZM65.3972 6.82154C65.8112 6.35554 66.0182 5.76154 66.0182 5.03654C66.0182 4.33254 65.8172 3.75654 65.4172 3.31054C64.9952 2.85154 64.4402 2.62254 63.7472 2.62254C63.0302 2.62254 62.4602 2.85554 62.0362 3.32054C61.6122 3.78554 61.4012 4.38454 61.4012 5.11454C61.4012 5.81254 61.6062 6.39154 62.0162 6.85054C62.4262 7.31054 62.9772 7.53954 63.6702 7.53954C64.3872 7.53954 64.9632 7.30054 65.3972 6.82154ZM64.9302 5.07054C64.9302 4.63554 64.8362 4.26254 64.6492 3.95154C64.4302 3.57554 64.1162 3.38754 63.7102 3.38754C63.2882 3.38754 62.9682 3.57554 62.7492 3.95154C62.5612 4.26254 62.4682 4.64154 62.4682 5.08954C62.4682 5.52454 62.5622 5.89754 62.7492 6.20854C62.9762 6.58454 63.2922 6.77254 63.7002 6.77254C64.1002 6.77254 64.4132 6.58154 64.6392 6.19854C64.8342 5.88154 64.9302 5.50554 64.9302 5.07054ZM70.1492 7.43254H71.0902C71.0452 7.15454 71.0222 6.77954 71.0222 6.30854V4.57254C71.0222 3.27254 70.4042 2.62254 69.1722 2.62254C68.5342 2.62254 67.9932 2.75854 67.5552 3.02954L67.7682 3.71754C68.1222 3.48554 68.5322 3.36854 68.9972 3.36854C69.6502 3.36854 69.9762 3.67854 69.9762 4.29954V4.38754C69.1032 4.38054 68.4252 4.52954 67.9432 4.83354C67.4602 5.13754 67.2202 5.57654 67.2202 6.15254C67.2202 6.53354 67.3432 6.85454 67.5892 7.11254C67.8602 7.39654 68.2202 7.53954 68.6652 7.53954C69.2612 7.53954 69.7202 7.32254 70.0422 6.88954H70.0712L70.1492 7.43254ZM70.0022 5.81254V5.08554C68.8462 5.06554 68.2682 5.38254 68.2682 6.03554C68.2682 6.28154 68.3342 6.46554 68.4692 6.58854C68.6042 6.71154 68.7762 6.77254 68.9812 6.77254C69.2112 6.77254 69.4262 6.69954 69.6222 6.55454C69.8192 6.40854 69.9402 6.22354 69.9852 5.99654C69.9962 5.94554 70.0022 5.88354 70.0022 5.81254ZM76.1152 7.43254H77.0452C77.0202 7.04454 77.0082 6.62154 77.0082 6.16254V0.555542H75.9592V3.26154H75.9392C75.6872 2.83454 75.2442 2.62154 74.6112 2.62154C74.0352 2.62154 73.5512 2.84154 73.1562 3.28154C72.7482 3.75354 72.5452 4.37154 72.5452 5.13454C72.5452 5.84554 72.7322 6.42454 73.1072 6.87054C73.4822 7.31654 73.9552 7.53954 74.5232 7.53954C75.2342 7.53954 75.7402 7.25154 76.0372 6.67554H76.0662L76.1152 7.43254ZM75.9592 5.44454V4.65854C75.9592 4.52254 75.9492 4.41254 75.9302 4.32854C75.8712 4.07654 75.7442 3.86454 75.5512 3.69354C75.3562 3.52254 75.1212 3.43654 74.8502 3.43654C74.4592 3.43654 74.1532 3.59154 73.9282 3.90254C73.7052 4.21354 73.5922 4.61054 73.5922 5.09554C73.5922 5.56154 73.6992 5.93954 73.9142 6.23054C74.1412 6.54054 74.4472 6.69554 74.8302 6.69554C75.1742 6.69554 75.4492 6.56654 75.6582 6.30754C75.8602 6.06854 75.9592 5.78054 75.9592 5.44454ZM85.3872 6.82154C85.8012 6.35554 86.0082 5.76154 86.0082 5.03654C86.0082 4.33254 85.8072 3.75654 85.4072 3.31054C84.9872 2.85154 84.4302 2.62254 83.7392 2.62254C83.0202 2.62254 82.4502 2.85554 82.0262 3.32054C81.6022 3.78554 81.3912 4.38454 81.3912 5.11454C81.3912 5.81254 81.5962 6.39154 82.0062 6.85054C82.4182 7.31054 82.9692 7.53954 83.6602 7.53954C84.3792 7.53954 84.9532 7.30054 85.3872 6.82154ZM84.9222 5.07054C84.9222 4.63554 84.8282 4.26254 84.6412 3.95154C84.4202 3.57554 84.1082 3.38754 83.7002 3.38754C83.2802 3.38754 82.9602 3.57554 82.7392 3.95154C82.5512 4.26254 82.4582 4.64154 82.4582 5.08954C82.4582 5.52454 82.5522 5.89754 82.7392 6.20854C82.9662 6.58454 83.2822 6.77254 83.6902 6.77254C84.0902 6.77254 84.4052 6.58154 84.6312 6.19854C84.8242 5.88154 84.9222 5.50554 84.9222 5.07054ZM90.5962 7.43254H91.6432V4.60854C91.6432 3.91654 91.4632 3.39554 91.1002 3.04654C90.8092 2.76154 90.4432 2.61954 90.0042 2.61954C89.6552 2.61954 89.3382 2.70854 89.0532 2.88454C88.8152 3.03554 88.6332 3.22454 88.5102 3.45354H88.4812L88.4322 2.71654H87.5122C87.5372 3.20254 87.5492 3.65154 87.5492 4.06554V7.43154H88.5982V4.63554C88.5982 4.32654 88.6952 4.05654 88.8892 3.82754C89.0832 3.59854 89.3342 3.48454 89.6452 3.48454C90.2802 3.48454 90.5962 3.90054 90.5962 4.73254V7.43254ZM98.6952 3.50354H97.5422V5.79354C97.5422 6.37554 97.7472 6.66654 98.1532 6.66654C98.3412 6.66654 98.4972 6.65054 98.6202 6.61754L98.6472 7.41254C98.4402 7.49054 98.1682 7.52954 97.8332 7.52954C97.4192 7.52954 97.0972 7.40354 96.8642 7.15154C96.6302 6.89954 96.5142 6.47554 96.5142 5.88054V3.50354H95.8252V2.71854H96.5142V1.85454L97.5412 1.54454V2.71754H98.6952V3.50354ZM103.195 7.43254H104.244V4.62954C104.244 3.93154 104.066 3.40354 103.711 3.04854C103.426 2.76354 103.067 2.62154 102.633 2.62154C102.02 2.62154 101.547 2.87954 101.217 3.39654H101.197V0.555542H100.15V7.43154H101.197V4.59654C101.197 4.44854 101.215 4.32254 101.246 4.21954C101.428 3.72954 101.76 3.48454 102.246 3.48454C102.879 3.48454 103.195 3.90754 103.195 4.75254V7.43254ZM109.967 4.85254C109.967 5.04054 109.953 5.19854 109.928 5.32754H106.785C106.799 5.79354 106.949 6.14854 107.24 6.39454C107.506 6.61454 107.849 6.72454 108.269 6.72454C108.734 6.72454 109.158 6.65054 109.54 6.50154L109.704 7.22954C109.257 7.42354 108.731 7.52054 108.122 7.52054C107.392 7.52054 106.817 7.30554 106.401 6.87554C105.983 6.44554 105.776 5.86854 105.776 5.14454C105.776 4.43354 105.969 3.84154 106.358 3.36954C106.764 2.86554 107.313 2.61354 108.006 2.61354C108.684 2.61354 109.199 2.86554 109.547 3.36954C109.828 3.76954 109.967 4.26454 109.967 4.85254ZM108.764 3.77654C108.906 4.00254 108.975 4.27054 108.967 4.58154H106.785C106.819 4.26454 106.922 3.99354 107.096 3.76654C107.309 3.48154 107.588 3.33954 107.93 3.33954C108.305 3.33954 108.582 3.48554 108.764 3.77654Z" fill="#63686B"/>
<g clip-path="url(#clip1_3_467)">
<path d="M19.8383 25.9995H5.68201C2.96809 25.9995 0.760132 23.7916 0.760132 21.0776V6.92139C0.760132 4.20746 2.96809 1.99951 5.68201 1.99951H19.8383C22.5522 1.99951 24.7601 4.20746 24.7601 6.92139V21.0776C24.7601 23.7916 22.5522 25.9995 19.8383 25.9995Z" fill="#00C3FF"/>
<path d="M19.8383 1.99951H12.7601V25.9995H19.8383C22.5522 25.9995 24.7601 23.7916 24.7601 21.0776V6.92139C24.7601 4.20746 22.5522 1.99951 19.8383 1.99951Z" fill="#00AAF0"/>
<path d="M8.14991 20.4924C7.93312 20.8679 7.53838 21.0781 7.13305 21.0781C6.93435 21.0781 6.73316 21.0276 6.54909 20.9214C5.98949 20.5983 5.79707 19.8802 6.12013 19.3206L6.35062 18.9214H9.05695L8.14991 20.4924Z" fill="white"/>
<path d="M5.93982 17.9839C5.29365 17.9839 4.76794 17.4582 4.76794 16.812C4.76794 16.1659 5.29365 15.6402 5.93982 15.6402H8.24504L11.4069 10.1636L10.55 8.67933C10.227 8.11973 10.4193 7.40161 10.9789 7.0785H10.979C11.5386 6.75543 12.2567 6.9479 12.5798 7.50745L12.7601 7.81987L12.9405 7.5075C13.2637 6.94786 13.9818 6.75548 14.5413 7.07854C14.8124 7.23506 15.0063 7.48776 15.0873 7.79011C15.1683 8.09245 15.1267 8.40829 14.9702 8.67937L10.9514 15.6402H13.4863L14.8395 17.9839H5.93982Z" fill="white"/>
<path d="M19.5804 17.9838H18.6283L19.4001 19.3205C19.7232 19.88 19.5307 20.5981 18.9712 20.9212C18.7906 21.0255 18.5901 21.0788 18.3871 21.0788C18.2853 21.0788 18.1829 21.0654 18.0819 21.0383C17.7795 20.9573 17.5268 20.7634 17.3703 20.4923L13.3013 13.4447L14.6545 11.101L17.2752 15.6401H19.5804C20.2266 15.6401 20.7523 16.1658 20.7523 16.812C20.7523 17.4581 20.2266 17.9838 19.5804 17.9838Z" fill="#F2F2F2"/>
<path d="M12.7601 15.6401V17.9839H14.8395L13.4864 15.6401H12.7601Z" fill="#F2F2F2"/>
<path d="M15.0873 7.78997C15.0062 7.48762 14.8124 7.23487 14.5413 7.07841C13.9818 6.75534 13.2637 6.94767 12.9405 7.50736L12.7601 7.81973V12.5072L14.9702 8.67923C15.1267 8.40815 15.1683 8.09236 15.0873 7.78997Z" fill="#F2F2F2"/>
</g>
</g>
<defs>
<clipPath id="clip0_3_467">
<rect width="111" height="30" fill="white" transform="translate(0.760132 -0.000488281)"/>
</clipPath>
<clipPath id="clip1_3_467">
<rect width="24" height="24" fill="white" transform="translate(0.760132 1.99951)"/>
</clipPath>
</defs>
</svg>
