<svg width="17" height="21" viewBox="0 0 17 21" fill="none" xmlns="http://www.w3.org/2000/svg">
<path fill-rule="evenodd" clip-rule="evenodd" d="M7.5417 3.86063V1.87496C7.5417 1.34596 7.97103 0.916626 8.50003 0.916626C9.02807 0.916626 9.45836 1.34596 9.45836 1.87496V3.86063C10.8824 4.06571 12.2136 4.72696 13.2428 5.75621C14.5011 7.0145 15.2084 8.72129 15.2084 10.5V14.1071L15.9837 15.6577C16.3545 16.4004 16.3152 17.2821 15.8782 17.9884C15.4422 18.6947 14.6707 19.125 13.8408 19.125H9.45836C9.45836 19.654 9.02807 20.0833 8.50003 20.0833C7.97103 20.0833 7.5417 19.654 7.5417 19.125H3.15924C2.32836 19.125 1.55692 18.6947 1.12088 17.9884C0.68388 17.2821 0.64458 16.4004 1.01641 15.6577L1.7917 14.1071V10.5C1.7917 8.72129 2.498 7.0145 3.7563 5.75621C4.78651 4.72696 6.11665 4.06571 7.5417 3.86063ZM8.50003 5.70829C7.22832 5.70829 6.0103 6.21333 5.11138 7.11225C4.21246 8.01021 3.70836 9.22921 3.70836 10.5V14.3333C3.70836 14.4818 3.67292 14.6285 3.60679 14.7617C3.60679 14.7617 3.18032 15.6146 2.72991 16.5145C2.65612 16.663 2.66379 16.8403 2.75099 16.9812C2.8382 17.122 2.99249 17.2083 3.15924 17.2083H13.8408C14.0066 17.2083 14.1609 17.122 14.2481 16.9812C14.3353 16.8403 14.343 16.663 14.2692 16.5145C13.8188 15.6146 13.3923 14.7617 13.3923 14.7617C13.3262 14.6285 13.2917 14.4818 13.2917 14.3333V10.5C13.2917 9.22921 12.7867 8.01021 11.8877 7.11225C10.9888 6.21333 9.77078 5.70829 8.50003 5.70829Z" fill="#4079FF"/>
</svg>
