<svg width="116" height="28" viewBox="0 0 116 28" fill="none" xmlns="http://www.w3.org/2000/svg">
<g clip-path="url(#clip0_3_429)">
<path fill-rule="evenodd" clip-rule="evenodd" d="M1.19083 0.368049C0.917332 0.65801 0.760132 1.1043 0.760132 1.68422V22.3118C0.760132 22.8918 0.917332 23.338 1.20106 23.6179L1.27519 23.6797L12.9923 12.1216V11.8619L1.26496 0.306274L1.19083 0.368049Z" fill="url(#paint0_linear_3_429)"/>
<path fill-rule="evenodd" clip-rule="evenodd" d="M16.8904 15.9895L12.9821 12.133V11.8632L16.8917 8.00671L16.976 8.0584L21.6 10.6504C22.9241 11.3867 22.9241 12.5995 21.6 13.3458L16.976 15.9378C16.9747 15.9378 16.8904 15.9895 16.8904 15.9895Z" fill="url(#paint1_linear_3_429)"/>
<path fill-rule="evenodd" clip-rule="evenodd" d="M16.9748 15.9377L12.9821 11.998L1.19086 23.6293C1.62156 24.0857 2.34621 24.1373 3.1565 23.6911L16.9748 15.9377Z" fill="url(#paint2_linear_3_429)"/>
<path fill-rule="evenodd" clip-rule="evenodd" d="M16.9748 8.05949L3.1565 0.316253C2.34749 -0.140122 1.62156 -0.0783474 1.19086 0.378027L12.9809 11.9979L16.9748 8.05949Z" fill="url(#paint3_linear_3_429)"/>
<path opacity="0.2" fill-rule="evenodd" clip-rule="evenodd" d="M16.8904 15.8547L3.16669 23.5463C2.39986 23.9812 1.7161 23.951 1.27518 23.5564L1.20105 23.6295L1.27518 23.6913C1.7161 24.0846 2.39986 24.1161 3.16669 23.6812L16.985 15.9379L16.8904 15.8547Z" fill="black"/>
<path opacity="0.12" fill-rule="evenodd" clip-rule="evenodd" d="M21.5987 13.2108L16.8802 15.8545L16.9645 15.9377L21.5885 13.3457C22.2506 12.9726 22.5765 12.4859 22.5765 11.998C22.5343 12.4443 22.1982 12.8692 21.5987 13.2108Z" fill="black"/>
<path opacity="0.25" fill-rule="evenodd" clip-rule="evenodd" d="M3.15647 0.451715L21.5987 10.787C22.1981 11.1185 22.5343 11.5535 22.5867 11.9998C22.5867 11.5131 22.2608 11.0252 21.5987 10.6521L3.15647 0.31682C1.83242 -0.429516 0.760132 0.192011 0.760132 1.68468V1.81958C0.760132 0.326906 1.83242 -0.284535 3.15647 0.451715Z" fill="white"/>
<path fill-rule="evenodd" clip-rule="evenodd" d="M93.0683 23.8464H94.9214V11.4255H93.0683V23.8464ZM109.768 15.8997L107.642 21.285H107.579L105.373 15.8997H103.376L106.685 23.4261L104.798 27.6131H106.731L111.829 15.8997H109.768ZM99.2522 22.4356C98.6461 22.4356 97.7985 22.1315 97.7985 21.3804C97.7985 20.4225 98.8537 20.0539 99.7649 20.0539C100.579 20.0539 100.963 20.2308 101.458 20.4692C101.314 21.6208 100.323 22.4356 99.2522 22.4356ZM99.4769 15.6275C98.1346 15.6275 96.7445 16.2196 96.1692 17.5292L97.8146 18.2168C98.1664 17.5292 98.8211 17.3056 99.5087 17.3056C100.468 17.3056 101.442 17.8809 101.458 18.9033V19.0315C101.122 18.8397 100.403 18.5526 99.5246 18.5526C97.75 18.5526 95.9447 19.5273 95.9447 21.3485C95.9447 23.0108 97.3993 24.0819 99.0288 24.0819C100.275 24.0819 100.963 23.5225 101.394 22.8668H101.458V23.8256H103.249V19.0633C103.249 16.8585 101.601 15.6275 99.4769 15.6275ZM88.0191 17.4121H85.3821V13.1545H88.0191C89.4051 13.1545 90.1921 14.3011 90.1921 15.2828C90.1921 16.2456 89.4051 17.4121 88.0191 17.4121ZM87.971 11.4247H83.5286V23.8465H85.3817V19.1409H87.971C90.0257 19.1409 92.0457 17.6525 92.0457 15.2828C92.0457 12.9131 90.0257 11.4247 87.971 11.4247ZM63.7464 22.4376C62.4656 22.4376 61.3935 21.3655 61.3935 19.893C61.3935 18.4036 62.4656 17.3156 63.7464 17.3156C65.0102 17.3156 66.0028 18.4036 66.0028 19.893C66.0028 21.3655 65.0102 22.4376 63.7464 22.4376ZM65.8745 16.5953H65.8109C65.3946 16.0995 64.5937 15.6504 63.5862 15.6504C61.4729 15.6504 59.5354 17.5074 59.5354 19.893C59.5354 22.2617 61.4729 24.1028 63.5862 24.1028C64.5937 24.1028 65.3946 23.6547 65.8109 23.142H65.8745V23.7501C65.8745 25.3677 65.01 26.2311 63.618 26.2311C62.4813 26.2311 61.7769 25.4154 61.4888 24.7268L59.8722 25.3995C60.3362 26.5192 61.5682 27.8964 63.618 27.8964C65.795 27.8964 67.6361 26.6156 67.6361 23.4938V15.9067H65.8745V16.5953ZM68.917 23.8464H70.773V11.4255H68.917V23.8464ZM73.5105 19.749C73.4628 18.1155 74.7753 17.2839 75.7192 17.2839C76.4565 17.2839 77.0805 17.6525 77.2891 18.1801L73.5105 19.749ZM79.2731 18.34C78.9204 17.3961 77.8483 15.6504 75.6555 15.6504C73.4785 15.6504 71.6692 17.3633 71.6692 19.8771C71.6692 22.2458 73.4626 24.1028 75.8631 24.1028C77.7996 24.1028 78.9204 22.9185 79.3854 22.2299L77.9447 21.2691C77.4638 21.9736 76.808 22.4376 75.8631 22.4376C74.9192 22.4376 74.2465 22.0054 73.8153 21.1568L79.4649 18.8199L79.2731 18.34ZM34.2559 16.948V18.7405H38.5452C38.418 19.749 38.0812 20.4852 37.5695 20.9969C36.9445 21.6219 35.9678 22.3104 34.2559 22.3104C31.6139 22.3104 29.5492 20.1812 29.5492 17.5402C29.5492 14.8993 31.6139 12.769 34.2559 12.769C35.6807 12.769 36.7209 13.3294 37.489 14.0507L38.7538 12.7859C37.6808 11.7615 36.2569 10.9766 34.2559 10.9766C30.6372 10.9766 27.5958 13.9226 27.5958 17.5402C27.5958 21.1569 30.6372 24.1029 34.2559 24.1029C36.2083 24.1029 37.6808 23.462 38.8333 22.2618C40.0177 21.0774 40.3863 19.4121 40.3863 18.0678C40.3863 17.6525 40.3545 17.268 40.2899 16.948H34.2559ZM45.2625 22.4376C43.9827 22.4376 42.8779 21.3814 42.8779 19.8771C42.8779 18.3559 43.9827 17.3156 45.2625 17.3156C46.5432 17.3156 47.6481 18.3559 47.6481 19.8771C47.6481 21.3814 46.5432 22.4376 45.2625 22.4376ZM45.2629 15.6504C42.926 15.6504 41.0213 17.4279 41.0213 19.8771C41.0213 22.3104 42.926 24.1028 45.2629 24.1028C47.6008 24.1028 49.5055 22.3104 49.5055 19.8771C49.5055 17.4279 47.6008 15.6504 45.2629 15.6504ZM54.5166 22.4376C53.2359 22.4376 52.131 21.3814 52.131 19.8771C52.131 18.3559 53.2359 17.3156 54.5166 17.3156C55.7973 17.3156 56.9012 18.3559 56.9012 19.8771C56.9012 21.3814 55.7973 22.4376 54.5166 22.4376ZM54.5172 15.6504C52.1803 15.6504 50.2755 17.4279 50.2755 19.8771C50.2755 22.3104 52.1803 24.1028 54.5172 24.1028C56.8541 24.1028 58.7588 22.3104 58.7588 19.8771C58.7588 17.4279 56.8541 15.6504 54.5172 15.6504Z" fill="#63686B"/>
<path fill-rule="evenodd" clip-rule="evenodd" d="M57.769 7.08817C58.6404 7.08817 59.3687 6.78711 59.9549 6.18401C60.5401 5.58189 60.8332 4.84564 60.8332 3.97426C60.8332 3.10785 60.5391 2.3726 59.9509 1.7675C59.3617 1.1624 58.6354 0.860352 57.769 0.860352C56.8976 0.860352 56.1693 1.16141 55.5841 1.76352C54.9979 2.36564 54.7058 3.10288 54.7058 3.97426C54.7058 4.84564 54.9979 5.58189 55.5841 6.18401C56.1693 6.78711 56.8976 7.08817 57.769 7.08817ZM33.1922 6.20616C33.686 5.71135 33.9324 5.04862 33.9324 4.216C33.9324 4.07093 33.9185 3.92189 33.8907 3.7659H31.0023V4.48228H33.1663C33.1226 4.99895 32.9557 5.40036 32.6675 5.68949C32.2224 6.13363 31.668 6.3552 31.0023 6.3552C30.3743 6.3552 29.8318 6.13561 29.3738 5.69346C28.9158 5.25231 28.6872 4.67901 28.6872 3.97455C28.6872 3.26911 28.9158 2.6968 29.3738 2.25465C29.8318 1.8135 30.3743 1.59292 31.0023 1.59292C31.6958 1.59292 32.2393 1.82939 32.6338 2.30036L33.1584 1.77574C32.9249 1.49853 32.6139 1.27696 32.2254 1.11004C31.8379 0.944106 31.4285 0.860645 31.0023 0.860645C30.1418 0.860645 29.4096 1.15872 28.8084 1.75488C28.2053 2.35202 27.9053 3.09125 27.9053 3.97455C27.9053 4.85686 28.2053 5.59709 28.8084 6.19324C29.4096 6.79039 30.1418 7.08846 31.0023 7.08846C31.9005 7.08846 32.6308 6.79436 33.1922 6.20616ZM35.7976 1.72593H38.5121V0.993654H35.0316V6.95519H38.5121V6.22192H35.7976V4.33212H38.2449V3.61574H35.7976V1.72593ZM41.7422 6.95473H40.9761V1.72547H39.3109V0.993195H43.4074V1.72547H41.7422V6.95473ZM47.1376 6.95496H46.3715V0.993424H47.1376V6.95496ZM50.5353 6.95473H49.7692V1.72547H48.104V0.993195H52.2005V1.72547H50.5353V6.95473ZM56.1496 5.68539C56.5907 6.13251 57.1302 6.35507 57.7691 6.35507C58.407 6.35507 58.9475 6.13251 59.3887 5.68539C59.8298 5.23828 60.0514 4.66796 60.0514 3.97443C60.0514 3.2809 59.8298 2.70959 59.3887 2.26347C58.9475 1.81635 58.407 1.5928 57.7691 1.5928C57.1302 1.5928 56.5907 1.81635 56.1496 2.26347C55.7094 2.70959 55.4878 3.2809 55.4878 3.97443C55.4878 4.66796 55.7094 5.23828 56.1496 5.68539ZM61.9083 0.993195V6.95473H62.6744V3.24169L62.6406 2.09211H62.6744L65.7048 6.95473H66.5047V0.993195H65.7376V4.48169L65.7714 5.63028H65.7376L62.8403 0.993195H61.9083Z" fill="#63686B"/>
</g>
<defs>
<linearGradient id="paint0_linear_3_429" x1="11.9334" y1="1.46896" x2="-6.78225" y2="6.52197" gradientUnits="userSpaceOnUse">
<stop stop-color="#00A0FF"/>
<stop offset="0.007" stop-color="#00A1FF"/>
<stop offset="0.26" stop-color="#00BEFF"/>
<stop offset="0.512" stop-color="#00D2FF"/>
<stop offset="0.76" stop-color="#00DFFF"/>
<stop offset="1" stop-color="#00E3FF"/>
</linearGradient>
<linearGradient id="paint1_linear_3_429" x1="23.3229" y1="11.9948" x2="0.438229" y2="11.9948" gradientUnits="userSpaceOnUse">
<stop stop-color="#FFE000"/>
<stop offset="0.409" stop-color="#FFBD00"/>
<stop offset="0.775" stop-color="#FFA500"/>
<stop offset="1" stop-color="#FF9C00"/>
</linearGradient>
<linearGradient id="paint2_linear_3_429" x1="14.8056" y1="14.1376" x2="0.0259598" y2="39.3264" gradientUnits="userSpaceOnUse">
<stop stop-color="#FF3A44"/>
<stop offset="1" stop-color="#C31162"/>
</linearGradient>
<linearGradient id="paint3_linear_3_429" x1="-1.77999" y1="-6.50179" x2="4.81499" y2="4.73952" gradientUnits="userSpaceOnUse">
<stop stop-color="#32A071"/>
<stop offset="0.069" stop-color="#2DA771"/>
<stop offset="0.476" stop-color="#15CF74"/>
<stop offset="0.801" stop-color="#06E775"/>
<stop offset="1" stop-color="#00F076"/>
</linearGradient>
<clipPath id="clip0_3_429">
<rect width="115" height="28" fill="white" transform="translate(0.760132)"/>
</clipPath>
</defs>
</svg>
