<svg width="120" height="120" viewBox="0 0 120 120" fill="none" xmlns="http://www.w3.org/2000/svg">
<rect width="120" height="120" rx="20" fill="white"/>
<path d="M60 30C57.4288 30 54.9154 30.7624 52.7776 32.1909C50.6398 33.6194 48.9735 35.6497 47.9896 38.0251C47.0056 40.4006 46.7482 43.0144 47.2498 45.5362C47.7514 48.0579 48.9895 50.3743 50.8076 52.1924C52.6257 54.0105 54.9421 55.2486 57.4638 55.7502C59.9856 56.2518 62.5995 55.9944 64.9749 55.0104C67.3503 54.0265 69.3807 52.3603 70.8091 50.2224C72.2376 48.0846 73 45.5712 73 43C73 39.5522 71.6304 36.2456 69.1924 33.8076C66.7544 31.3696 63.4478 30 60 30ZM60 52C58.22 52 56.4799 51.4722 54.9999 50.4832C53.5198 49.4943 52.3663 48.0887 51.6851 46.4442C51.0039 44.7996 50.8257 42.99 51.1729 41.2442C51.5202 39.4984 52.3774 37.8947 53.636 36.636C54.8947 35.3774 56.4984 34.5202 58.2442 34.1729C59.99 33.8257 61.7996 34.0039 63.4442 34.6851C65.0887 35.3663 66.4943 36.5198 67.4832 37.9999C68.4722 39.4799 69 41.22 69 43C68.9998 45.3869 68.0515 47.676 66.3637 49.3637C64.676 51.0515 62.3869 51.9998 60 52Z" fill="#80A6FF"/>
<path d="M45 62H42V48H34V62H31L38 71L45 62Z" fill="#80A6FF"/>
<path d="M89 54H86V40H78V54H75L82 63L89 54Z" fill="#80A6FF"/>
<path d="M60 33C58.0222 33 56.0888 33.5865 54.4443 34.6853C52.7998 35.7841 51.5181 37.3459 50.7612 39.1732C50.0043 41.0004 49.8063 43.0111 50.1922 44.9509C50.578 46.8907 51.5304 48.6725 52.9289 50.0711C54.3275 51.4696 56.1093 52.422 58.0491 52.8079C59.9889 53.1937 61.9996 52.9957 63.8268 52.2388C65.6541 51.4819 67.2159 50.2002 68.3147 48.5557C69.4135 46.9112 70 44.9778 70 43C69.9969 40.3488 68.9424 37.807 67.0677 35.9323C65.193 34.0576 62.6512 33.0031 60 33ZM60 51C58.4178 51 56.871 50.5308 55.5554 49.6518C54.2399 48.7727 53.2145 47.5233 52.609 46.0615C52.0035 44.5997 51.845 42.9911 52.1537 41.4393C52.4624 39.8874 53.2243 38.462 54.3432 37.3431C55.462 36.2243 56.8874 35.4624 58.4393 35.1537C59.9911 34.845 61.5997 35.0035 63.0615 35.609C64.5233 36.2145 65.7727 37.2398 66.6518 38.5554C67.5308 39.871 68 41.4177 68 43C67.9976 45.121 67.154 47.1544 65.6542 48.6542C64.1545 50.154 62.121 50.9976 60 51Z" fill="#263357"/>
<path d="M60 29C57.2311 29 54.5243 29.8211 52.222 31.3594C49.9197 32.8978 48.1253 35.0843 47.0657 37.6424C46.0061 40.2006 45.7288 43.0155 46.269 45.7313C46.8092 48.447 48.1426 50.9416 50.1005 52.8995C52.0584 54.8574 54.553 56.1908 57.2687 56.731C59.9845 57.2712 62.7994 56.9939 65.3576 55.9343C67.9157 54.8747 70.1022 53.0803 71.6406 50.778C73.1789 48.4757 74 45.7689 74 43C73.9959 39.2882 72.5196 35.7296 69.895 33.105C67.2704 30.4804 63.7118 29.0041 60 29ZM60 55C57.6266 55 55.3066 54.2962 53.3332 52.9776C51.3598 51.6591 49.8217 49.7849 48.9135 47.5922C48.0052 45.3995 47.7676 42.9867 48.2306 40.6589C48.6936 38.3311 49.8365 36.1929 51.5147 34.5147C53.193 32.8365 55.3311 31.6936 57.6589 31.2306C59.9867 30.7676 62.3995 31.0052 64.5922 31.9134C66.7849 32.8217 68.6591 34.3598 69.9776 36.3332C71.2962 38.3065 72 40.6266 72 43C71.9962 46.1814 70.7307 49.2315 68.4811 51.4811C66.2315 53.7307 63.1814 54.9962 60 55Z" fill="#263357"/>
<path d="M63 43V46C63 46.2652 62.8946 46.5196 62.7071 46.7071C62.5196 46.8946 62.2652 47 62 47H61C61 47.2652 60.8946 47.5196 60.7071 47.7071C60.5196 47.8946 60.2652 48 60 48C59.7348 48 59.4804 47.8946 59.2929 47.7071C59.1054 47.5196 59 47.2652 59 47H58C57.7348 47 57.4804 46.8946 57.2929 46.7071C57.1054 46.5196 57 46.2652 57 46C57 45.7348 57.1054 45.4804 57.2929 45.2929C57.4804 45.1054 57.7348 45 58 45H61V44H58C57.7348 44 57.4804 43.8946 57.2929 43.7071C57.1054 43.5196 57 43.2652 57 43V40C57 39.7348 57.1054 39.4804 57.2929 39.2929C57.4804 39.1054 57.7348 39 58 39H59C59 38.7348 59.1054 38.4804 59.2929 38.2929C59.4804 38.1054 59.7348 38 60 38C60.2652 38 60.5196 38.1054 60.7071 38.2929C60.8946 38.4804 61 38.7348 61 39H62C62.2652 39 62.5196 39.1054 62.7071 39.2929C62.8946 39.4804 63 39.7348 63 40C63 40.2652 62.8946 40.5196 62.7071 40.7071C62.5196 40.8946 62.2652 41 62 41H59V42H62C62.2652 42 62.5196 42.1054 62.7071 42.2929C62.8946 42.4804 63 42.7348 63 43Z" fill="#263357"/>
<path d="M75.895 69.5525C75.8117 69.3865 75.6839 69.2469 75.5259 69.1493C75.3678 69.0517 75.1857 69 75 69H70V59C70 58.7348 69.8946 58.4804 69.7071 58.2929C69.5196 58.1054 69.2652 58 69 58H51C50.7348 58 50.4804 58.1054 50.2929 58.2929C50.1054 58.4804 50 58.7348 50 59V69H45C44.8143 69 44.6322 69.0517 44.4743 69.1493C44.3163 69.247 44.1886 69.3867 44.1056 69.5528C44.0225 69.7189 43.9874 69.9048 44.004 70.0898C44.0207 70.2748 44.0886 70.4514 44.2 70.6L59.2 90.6C59.2931 90.7242 59.4139 90.825 59.5528 90.8944C59.6916 90.9639 59.8448 91 60 91C60.1552 91 60.3084 90.9639 60.4472 90.8944C60.5861 90.825 60.7069 90.7242 60.8 90.6L75.8 70.6C75.9114 70.4514 75.9793 70.2747 75.9961 70.0897C76.0129 69.9047 75.9779 69.7187 75.895 69.5525ZM60 88.3338L47 71H51C51.2652 71 51.5196 70.8946 51.7071 70.7071C51.8946 70.5196 52 70.2652 52 70V60H68V70C68 70.2652 68.1054 70.5196 68.2929 70.7071C68.4804 70.8946 68.7348 71 69 71H73L60 88.3338Z" fill="#263357"/>
<path d="M45.8983 61.5606C45.8161 61.3925 45.6883 61.2507 45.5295 61.1516C45.3706 61.0525 45.1872 61 45 61H43V48C43 47.7348 42.8946 47.4804 42.7071 47.2929C42.5195 47.1054 42.2652 47 42 47H34C33.7348 47 33.4804 47.1054 33.2929 47.2929C33.1053 47.4804 33 47.7348 33 48V61H31C30.8128 61 30.6293 61.0526 30.4705 61.1517C30.3117 61.2508 30.1839 61.3925 30.1017 61.5606C30.0194 61.7288 29.9861 61.9166 30.0053 62.1028C30.0246 62.289 30.0957 62.4661 30.2106 62.6139L37.2106 71.6139C37.3041 71.7341 37.4238 71.8314 37.5606 71.8983C37.6974 71.9652 37.8477 72 38 72C38.1523 72 38.3025 71.9652 38.4393 71.8983C38.5761 71.8314 38.6959 71.7341 38.7893 71.6139L45.7893 62.6139C45.9043 62.4661 45.9754 62.2891 45.9947 62.1029C46.014 61.9167 45.9806 61.7288 45.8983 61.5606ZM38 69.3713L33.0446 63H34C34.2652 63 34.5195 62.8946 34.7071 62.7071C34.8946 62.5196 35 62.2652 35 62V49H41V62C41 62.2652 41.1053 62.5196 41.2929 62.7071C41.4804 62.8946 41.7348 63 42 63H42.9553L38 69.3713Z" fill="#263357"/>
<path d="M34 46H42C42.2652 46 42.5196 45.8946 42.7071 45.7071C42.8946 45.5196 43 45.2652 43 45V42C43 41.7348 42.8946 41.4804 42.7071 41.2929C42.5196 41.1054 42.2652 41 42 41H34C33.7348 41 33.4804 41.1054 33.2929 41.2929C33.1054 41.4804 33 41.7348 33 42V45C33 45.2652 33.1054 45.5196 33.2929 45.7071C33.4804 45.8946 33.7348 46 34 46ZM35 43H41V44H35V43Z" fill="#263357"/>
<path d="M89.8984 53.5606C89.8161 53.3925 89.6883 53.2507 89.5295 53.1516C89.3706 53.0525 89.1872 53 89 53H87V40C87 39.7348 86.8946 39.4804 86.7071 39.2929C86.5195 39.1054 86.2652 39 86 39H78C77.7348 39 77.4804 39.1054 77.2929 39.2929C77.1053 39.4804 77 39.7348 77 40V53H75C74.8128 53 74.6293 53.0526 74.4705 53.1517C74.3117 53.2508 74.1839 53.3925 74.1017 53.5606C74.0195 53.7288 73.9861 53.9166 74.0053 54.1028C74.0246 54.289 74.0957 54.4661 74.2106 54.6139L81.2106 63.6139C81.3041 63.7341 81.4238 63.8314 81.5606 63.8983C81.6974 63.9652 81.8477 64 82 64C82.1523 64 82.3025 63.9652 82.4393 63.8983C82.5761 63.8314 82.6959 63.7341 82.7893 63.6139L89.7893 54.6139C89.9043 54.4661 89.9754 54.2891 89.9947 54.1029C90.014 53.9167 89.9806 53.7288 89.8984 53.5606ZM82 61.3713L77.0446 55H78C78.2652 55 78.5195 54.8946 78.7071 54.7071C78.8946 54.5196 79 54.2652 79 54V41H85V54C85 54.2652 85.1053 54.5196 85.2929 54.7071C85.4804 54.8946 85.7348 55 86 55H86.9553L82 61.3713Z" fill="#263357"/>
<path d="M78 38H86C86.2652 38 86.5196 37.8946 86.7071 37.7071C86.8946 37.5196 87 37.2652 87 37V34C87 33.7348 86.8946 33.4804 86.7071 33.2929C86.5196 33.1054 86.2652 33 86 33H78C77.7348 33 77.4804 33.1054 77.2929 33.2929C77.1054 33.4804 77 33.7348 77 34V37C77 37.2652 77.1054 37.5196 77.2929 37.7071C77.4804 37.8946 77.7348 38 78 38ZM79 35H85V36H79V35Z" fill="#263357"/>
</svg>
