<svg width="120" height="120" viewBox="0 0 120 120" fill="none" xmlns="http://www.w3.org/2000/svg">
<rect width="120" height="120" rx="20" fill="white"/>
<path d="M66.9999 54V68H69.9999V66C69.9999 66 80.9999 65 83.9999 63V68H86.9999V64C86.9999 61.3478 85.9464 58.8043 84.071 56.9289C82.1956 55.0536 79.6521 54 76.9999 54H66.9999Z" fill="#80A6FF"/>
<path d="M35.9999 41.5C35.9998 41.1717 36.0644 40.8465 36.19 40.5432C36.3156 40.2398 36.4998 39.9642 36.732 39.732C36.9641 39.4998 37.2398 39.3157 37.5431 39.1901C37.8465 39.0645 38.1716 38.9999 38.4999 39H47.4999C47.8283 38.9999 48.1534 39.0645 48.4568 39.1901C48.7601 39.3157 49.0358 39.4998 49.2679 39.732C49.5001 39.9642 49.6842 40.2398 49.8098 40.5432C49.9354 40.8465 50 41.1717 49.9999 41.5V44H52.9999V40C52.9999 37.3478 51.9464 34.8043 50.071 32.9289C48.1956 31.0536 45.6521 30 42.9999 30C40.3478 30 37.8042 31.0536 35.9289 32.9289C34.0535 34.8043 32.9999 37.3478 32.9999 40V44H35.9999V41.5Z" fill="#80A6FF"/>
<path d="M86.8574 83.9925L79.9999 82H79.8274C79.6208 82.5848 79.238 83.0912 78.7316 83.4494C78.2252 83.8075 77.6202 83.9999 76.9999 83.9999C76.3797 83.9999 75.7747 83.8075 75.2683 83.4494C74.7619 83.0912 74.379 82.5848 74.1724 82H73.9999L67.1424 83.9925C66.2149 84.364 65.4198 85.0047 64.8598 85.8322C64.2997 86.6596 64.0002 87.6358 63.9999 88.635V90H89.9999V88.635C89.9997 87.6358 89.7002 86.6596 89.1401 85.8322C88.58 85.0047 87.785 84.364 86.8574 83.9925Z" fill="#80A6FF"/>
<path d="M52.8574 59.9925L45.9999 58H45.8274C45.6208 58.5848 45.238 59.0912 44.7316 59.4494C44.2252 59.8075 43.6202 59.9999 42.9999 59.9999C42.3797 59.9999 41.7747 59.8075 41.2683 59.4494C40.7619 59.0912 40.379 58.5848 40.1724 58H39.9999L33.1424 59.9925C32.2149 60.364 31.4198 61.0047 30.8598 61.8322C30.2997 62.6596 30.0002 63.6358 29.9999 64.635V66H55.9999V64.635C55.9997 63.6358 55.7002 62.6596 55.1401 61.8322C54.58 61.0047 53.785 60.364 52.8574 59.9925Z" fill="#80A6FF"/>
<path d="M69.9999 47C73.8659 47 76.9999 43.866 76.9999 40C76.9999 36.134 73.8659 33 69.9999 33C66.1339 33 62.9999 36.134 62.9999 40C62.9999 43.866 66.1339 47 69.9999 47Z" fill="#80A6FF"/>
<path d="M75 69C75 68.7348 74.8946 68.4804 74.7071 68.2929C74.5196 68.1054 74.2652 68 74 68C73.7348 68 73.4804 68.1054 73.2929 68.2929C73.1054 68.4804 73 68.7348 73 69V70C73 70.2652 73.1054 70.5196 73.2929 70.7071C73.4804 70.8946 73.7348 71 74 71C74.2652 71 74.5196 70.8946 74.7071 70.7071C74.8946 70.5196 75 70.2652 75 70V69Z" fill="#263357"/>
<path d="M80 71C80.2652 71 80.5196 70.8946 80.7071 70.7071C80.8946 70.5196 81 70.2652 81 70V69C81 68.7348 80.8946 68.4804 80.7071 68.2929C80.5196 68.1054 80.2652 68 80 68C79.7348 68 79.4804 68.1054 79.2929 68.2929C79.1054 68.4804 79 68.7348 79 69V70C79 70.2652 79.1054 70.5196 79.2929 70.7071C79.4804 70.8946 79.7348 71 80 71Z" fill="#263357"/>
<path d="M87.2287 83.0638C87.1975 83.0525 87.1675 83.0413 87.1362 83.0325L80.9912 81.2463C80.9962 81.165 81 81.0825 81 81V79.6763C82.0255 79.3391 82.937 78.723 83.6322 77.8971C84.3274 77.0712 84.7789 76.068 84.9362 75H85.5C86.4279 74.999 87.3176 74.6299 87.9737 73.9737C88.6299 73.3176 88.9989 72.4279 89 71.5V70.5C89.0002 70.034 88.9071 69.5727 88.7262 69.1433C88.5452 68.7139 88.28 68.3252 87.9462 68H88V64C87.9967 61.0836 86.8367 58.2877 84.7745 56.2255C82.7123 54.1633 79.9163 53.0033 77 53H67C66.7348 53 66.4804 53.1054 66.2929 53.2929C66.1053 53.4804 66 53.7348 66 54V68H66.0537C65.72 68.3252 65.4548 68.7139 65.2738 69.1433C65.0928 69.5727 64.9997 70.034 65 70.5V71.5C65.001 72.4279 65.3701 73.3176 66.0262 73.9737C66.6824 74.6299 67.572 74.999 68.5 75H69.0637C69.221 76.068 69.6726 77.0712 70.3678 77.8971C71.063 78.723 71.9744 79.3391 73 79.6763V81C73 81.0825 73.0037 81.165 73.0087 81.2463L66.8637 83.0325C66.8325 83.0413 66.8025 83.0525 66.7712 83.0638C65.6557 83.506 64.6992 84.2741 64.0266 85.2679C63.3539 86.2616 62.9961 87.435 63 88.635V90C63 90.2652 63.1053 90.5196 63.2929 90.7071C63.4804 90.8946 63.7348 91 64 91H90C90.2652 91 90.5195 90.8946 90.7071 90.7071C90.8946 90.5196 91 90.2652 91 90V88.635C91.0038 87.435 90.6461 86.2616 89.9734 85.2679C89.3007 84.2741 88.3443 83.506 87.2287 83.0638ZM87 70.5V71.5C86.9996 71.8977 86.8415 72.2791 86.5603 72.5603C86.279 72.8415 85.8977 72.9997 85.5 73H85V69H85.5C85.8977 69.0003 86.279 69.1585 86.5603 69.4397C86.8415 69.7209 86.9996 70.1023 87 70.5ZM69 73H68.5C68.1022 72.9997 67.7209 72.8415 67.4397 72.5603C67.1584 72.2791 67.0003 71.8977 67 71.5V70.5C67.0003 70.1023 67.1584 69.7209 67.4397 69.4397C67.7209 69.1585 68.1022 69.0003 68.5 69H69V73ZM69.91 65.0037C69.6614 65.0265 69.4303 65.1412 69.2619 65.3255C69.0936 65.5098 69.0001 65.7504 69 66V67H68.5C68.3326 67 68.1655 67.0121 68 67.0363V55H77C79.3861 55.0027 81.6737 55.9518 83.3609 57.6391C85.0481 59.3263 85.9972 61.6139 86 64V67.0363C85.8344 67.0121 85.6673 67 85.5 67H85V63C84.9997 62.8191 84.9504 62.6416 84.8573 62.4864C84.7643 62.3313 84.6309 62.2042 84.4714 62.1189C84.3119 62.0335 84.1322 61.9929 83.9514 62.0014C83.7707 62.01 83.5957 62.0674 83.445 62.1675C81.1587 63.6925 72.8987 64.7325 69.91 65.0037ZM71 74.125V66.9062C73.4137 66.655 79.5475 65.9137 83 64.5938V74.125C83 76.2975 81.2425 78 79 78H75C72.7575 78 71 76.2975 71 74.125ZM79 80V81C79 81.5304 78.7893 82.0391 78.4142 82.4142C78.0391 82.7893 77.5304 83 77 83C76.4695 83 75.9608 82.7893 75.5858 82.4142C75.2107 82.0391 75 81.5304 75 81V80H79ZM89 89H65V88.635C64.9974 87.8429 65.2312 87.0681 65.6714 86.4097C66.1117 85.7512 66.7383 85.2391 67.4712 84.9388L73.6287 83.1488C73.9895 83.7161 74.4876 84.1831 75.0769 84.5067C75.6662 84.8303 76.3277 85 77 85C77.6723 85 78.3337 84.8303 78.923 84.5067C79.5123 84.1831 80.0104 83.7161 80.3712 83.1488L86.5287 84.9388C87.2616 85.2391 87.8883 85.7512 88.3285 86.4097C88.7687 87.0681 89.0025 87.8429 89 88.635V89Z" fill="#263357"/>
<path d="M76 76H78C78.2652 76 78.5196 75.8946 78.7071 75.7071C78.8946 75.5196 79 75.2652 79 75C79 74.7348 78.8946 74.4804 78.7071 74.2929C78.5196 74.1054 78.2652 74 78 74H76C75.7348 74 75.4804 74.1054 75.2929 74.2929C75.1054 74.4804 75 74.7348 75 75C75 75.2652 75.1054 75.5196 75.2929 75.7071C75.4804 75.8946 75.7348 76 76 76Z" fill="#263357"/>
<path d="M41 46V45C41 44.7348 40.8946 44.4804 40.7071 44.2929C40.5196 44.1054 40.2652 44 40 44C39.7348 44 39.4804 44.1054 39.2929 44.2929C39.1054 44.4804 39 44.7348 39 45V46C39 46.2652 39.1054 46.5196 39.2929 46.7071C39.4804 46.8946 39.7348 47 40 47C40.2652 47 40.5196 46.8946 40.7071 46.7071C40.8946 46.5196 41 46.2652 41 46Z" fill="#263357"/>
<path d="M46 47C46.2652 47 46.5196 46.8946 46.7071 46.7071C46.8946 46.5196 47 46.2652 47 46V45C47 44.7348 46.8946 44.4804 46.7071 44.2929C46.5196 44.1054 46.2652 44 46 44C45.7348 44 45.4804 44.1054 45.2929 44.2929C45.1054 44.4804 45 44.7348 45 45V46C45 46.2652 45.1054 46.5196 45.2929 46.7071C45.4804 46.8946 45.7348 47 46 47Z" fill="#263357"/>
<path d="M53.2287 59.0637C53.1975 59.0525 53.1675 59.0413 53.1362 59.0325L46.9912 57.2463C46.9962 57.165 47 57.0825 47 57V55.6763C48.0255 55.3391 48.937 54.723 49.6322 53.8971C50.3274 53.0712 50.7789 52.068 50.9362 51H51.5C52.4279 50.999 53.3176 50.6299 53.9737 49.9737C54.6299 49.3176 54.9989 48.4279 55 47.5V46.5C55.0007 45.5837 54.6406 44.704 53.9975 44.0513C53.9987 44.0338 54 44.0175 54 44V40C54 37.0826 52.841 34.2847 50.7781 32.2218C48.7152 30.1589 45.9174 29 43 29C40.0826 29 37.2847 30.1589 35.2218 32.2218C33.1589 34.2847 32 37.0826 32 40V44C32 44.0175 32.0012 44.0338 32.0025 44.0513C31.3594 44.704 30.9992 45.5837 31 46.5V47.5C31.001 48.4279 31.3701 49.3176 32.0262 49.9737C32.6824 50.6299 33.572 50.999 34.5 51H35.0637C35.221 52.068 35.6726 53.0712 36.3678 53.8971C37.063 54.723 37.9744 55.3391 39 55.6763V57C39 57.0825 39.0037 57.165 39.0087 57.2463L32.8637 59.0325C32.8325 59.0413 32.8025 59.0525 32.7712 59.0637C31.6557 59.506 30.6992 60.2741 30.0266 61.2679C29.3539 62.2616 28.9961 63.435 29 64.635V66C29 66.2652 29.1053 66.5196 29.2929 66.7071C29.4804 66.8946 29.7348 67 30 67H56C56.2652 67 56.5195 66.8946 56.7071 66.7071C56.8946 66.5196 57 66.2652 57 66V64.635C57.0038 63.435 56.6461 62.2616 55.9734 61.2679C55.3007 60.2741 54.3443 59.506 53.2287 59.0637ZM53 46.5V47.5C52.9996 47.8977 52.8415 48.2791 52.5603 48.5603C52.279 48.8415 51.8977 48.9997 51.5 49H51V45H51.5C51.8977 45.0003 52.279 45.1585 52.5603 45.4397C52.8415 45.7209 52.9996 46.1023 53 46.5ZM35 49H34.5C34.1022 48.9997 33.7209 48.8415 33.4397 48.5603C33.1584 48.2791 33.0003 47.8977 33 47.5V46.5C33.0003 46.1023 33.1584 45.7209 33.4397 45.4397C33.7209 45.1585 34.1022 45.0003 34.5 45H35V49ZM35 41.5V43H34V40C34 37.6131 34.9482 35.3239 36.636 33.636C38.3238 31.9482 40.613 31 43 31C45.3869 31 47.6761 31.9482 49.3639 33.636C51.0518 35.3239 52 37.6131 52 40V43H51V41.5C50.9989 40.5721 50.6299 39.6824 49.9737 39.0263C49.3176 38.3701 48.4279 38.001 47.5 38H38.5C37.572 38.001 36.6824 38.3701 36.0262 39.0263C35.3701 39.6824 35.001 40.5721 35 41.5ZM37 50.125V41.5C37.0003 41.1023 37.1584 40.7209 37.4397 40.4397C37.7209 40.1585 38.1022 40.0003 38.5 40H47.5C47.8977 40.0003 48.279 40.1585 48.5603 40.4397C48.8415 40.7209 48.9996 41.1023 49 41.5V50.125C49 52.2975 47.2425 54 45 54H41C38.7575 54 37 52.2975 37 50.125ZM45 56V57C45 57.5304 44.7893 58.0391 44.4142 58.4142C44.0391 58.7893 43.5304 59 43 59C42.4695 59 41.9608 58.7893 41.5858 58.4142C41.2107 58.0391 41 57.5304 41 57V56H45ZM55 65H31V64.635C30.9974 63.8429 31.2312 63.0681 31.6714 62.4097C32.1117 61.7512 32.7383 61.2391 33.4712 60.9388L39.6287 59.1488C39.9895 59.7161 40.4876 60.1831 41.0769 60.5067C41.6662 60.8303 42.3277 61 43 61C43.6723 61 44.3337 60.8303 44.923 60.5067C45.5123 60.1831 46.0104 59.7161 46.3712 59.1488L52.5287 60.9388C53.2616 61.2391 53.8883 61.7512 54.3285 62.4097C54.7687 63.0681 55.0025 63.8429 55 64.635V65Z" fill="#263357"/>
<path d="M41.7071 50.2956C42.6495 51.2382 43.3505 51.2382 44.2928 50.2956C44.4804 50.108 44.7347 50.0027 45 50.0027C45.2652 50.0027 45.5195 50.108 45.7071 50.2956C45.8946 50.4831 46 50.7375 46 51.0027C46 51.2679 45.8946 51.5223 45.7071 51.7098C43.9867 53.4301 42.0132 53.4301 40.2928 51.7098C40.1053 51.5223 39.9999 51.2679 39.9999 51.0027C39.9999 50.7375 40.1053 50.4831 40.2928 50.2956C40.4804 50.108 40.7347 50.0027 41 50.0027C41.2652 50.0027 41.5195 50.108 41.7071 50.2956Z" fill="#263357"/>
<path d="M62.9999 69C62.9999 68.7348 62.8946 68.4804 62.707 68.2929C62.5195 68.1054 62.2652 68 61.9999 68H31.9999C31.7347 68 31.4804 68.1054 31.2928 68.2929C31.1053 68.4804 30.9999 68.7348 30.9999 69V83C30.9999 83.2652 31.1053 83.5196 31.2928 83.7071C31.4804 83.8946 31.7347 84 31.9999 84H54.5858L58.2928 87.7071C58.4327 87.847 58.6109 87.9422 58.8048 87.9808C58.9988 88.0194 59.1999 87.9996 59.3826 87.9239C59.5654 87.8482 59.7215 87.72 59.8314 87.5556C59.9413 87.3911 59.9999 87.1978 59.9999 87V84H61.9999C62.2652 84 62.5195 83.8946 62.707 83.7071C62.8946 83.5196 62.9999 83.2652 62.9999 83V69ZM60.9999 82H58.9999C58.7347 82 58.4804 82.1053 58.2928 82.2929C58.1053 82.4804 57.9999 82.7348 57.9999 83V84.5859L55.7071 82.2929C55.6142 82.2 55.504 82.1263 55.3826 82.0761C55.2613 82.0258 55.1313 82 54.9999 82H32.9999V70H60.9999V82Z" fill="#263357"/>
<path d="M36.9999 74H56.9999C57.2652 74 57.5195 73.8946 57.707 73.7071C57.8946 73.5196 57.9999 73.2652 57.9999 73C57.9999 72.7348 57.8946 72.4804 57.707 72.2929C57.5195 72.1054 57.2652 72 56.9999 72H36.9999C36.7347 72 36.4804 72.1054 36.2928 72.2929C36.1053 72.4804 35.9999 72.7348 35.9999 73C35.9999 73.2652 36.1053 73.5196 36.2928 73.7071C36.4804 73.8946 36.7347 74 36.9999 74Z" fill="#263357"/>
<path d="M36.9999 77H56.9999C57.2652 77 57.5195 76.8946 57.707 76.7071C57.8946 76.5196 57.9999 76.2652 57.9999 76C57.9999 75.7348 57.8946 75.4804 57.707 75.2929C57.5195 75.1054 57.2652 75 56.9999 75H36.9999C36.7347 75 36.4804 75.1054 36.2928 75.2929C36.1053 75.4804 35.9999 75.7348 35.9999 76C35.9999 76.2652 36.1053 76.5196 36.2928 76.7071C36.4804 76.8946 36.7347 77 36.9999 77Z" fill="#263357"/>
<path d="M57 78H47C46.7348 78 46.4804 78.1054 46.2929 78.2929C46.1054 78.4804 46 78.7348 46 79C46 79.2652 46.1054 79.5196 46.2929 79.7071C46.4804 79.8946 46.7348 80 47 80H57C57.2652 80 57.5196 79.8946 57.7071 79.7071C57.8946 79.5196 58 79.2652 58 79C58 78.7348 57.8946 78.4804 57.7071 78.2929C57.5196 78.1054 57.2652 78 57 78Z" fill="#263357"/>
<path d="M67 39H68C68.2652 39 68.5196 38.8946 68.7071 38.7071C68.8946 38.5196 69 38.2652 69 38C69 37.7348 68.8946 37.4804 68.7071 37.2929C68.5196 37.1054 68.2652 37 68 37H67C66.7348 37 66.4804 37.1054 66.2929 37.2929C66.1054 37.4804 66 37.7348 66 38C66 38.2652 66.1054 38.5196 66.2929 38.7071C66.4804 38.8946 66.7348 39 67 39Z" fill="#263357"/>
<path d="M72 39H73C73.2652 39 73.5196 38.8946 73.7071 38.7071C73.8946 38.5196 74 38.2652 74 38C74 37.7348 73.8946 37.4804 73.7071 37.2929C73.5196 37.1054 73.2652 37 73 37H72C71.7348 37 71.4804 37.1054 71.2929 37.2929C71.1054 37.4804 71 37.7348 71 38C71 38.2652 71.1054 38.5196 71.2929 38.7071C71.4804 38.8946 71.7348 39 72 39Z" fill="#263357"/>
<path d="M72.707 41.2956C72.6142 41.2027 72.5039 41.129 72.3826 41.0788C72.2613 41.0285 72.1312 41.0027 71.9999 41.0027C71.8686 41.0027 71.7385 41.0285 71.6172 41.0788C71.4959 41.129 71.3856 41.2027 71.2928 41.2956C70.3504 42.2382 69.6494 42.2382 68.707 41.2956C68.5195 41.108 68.2651 41.0027 67.9999 41.0027C67.7347 41.0027 67.4803 41.108 67.2928 41.2956C67.1052 41.4831 66.9999 41.7375 66.9999 42.0027C66.9999 42.2679 67.1052 42.5223 67.2928 42.7098C69.0131 44.4301 70.9867 44.4301 72.707 42.7098C72.7999 42.617 72.8736 42.5067 72.9238 42.3854C72.9741 42.2641 72.9999 42.134 72.9999 42.0027C72.9999 41.8714 72.9741 41.7413 72.9238 41.62C72.8736 41.4987 72.7999 41.3884 72.707 41.2956Z" fill="#263357"/>
<path d="M82 29H58C57.7348 29 57.4804 29.1054 57.2929 29.2929C57.1054 29.4804 57 29.7348 57 30V50C57 50.2652 57.1054 50.5196 57.2929 50.7071C57.4804 50.8946 57.7348 51 58 51H59V54C58.9998 54.1979 59.0584 54.3914 59.1683 54.556C59.2782 54.7206 59.4344 54.8489 59.6172 54.9246C59.8 55.0004 60.0012 55.0202 60.1953 54.9815C60.3894 54.9429 60.5676 54.8475 60.7075 54.7075L64.4137 51H82C82.2652 51 82.5196 50.8946 82.7071 50.7071C82.8946 50.5196 83 50.2652 83 50V30C83 29.7348 82.8946 29.4804 82.7071 29.2929C82.5196 29.1054 82.2652 29 82 29ZM81 49H64C63.7347 48.9999 63.4803 49.1051 63.2925 49.2925L61 51.5863V50C61 49.7348 60.8946 49.4804 60.7071 49.2929C60.5196 49.1054 60.2652 49 60 49H59V31H81V49Z" fill="#263357"/>
<path d="M69.9999 32C68.4177 32 66.871 32.4692 65.5554 33.3482C64.2398 34.2273 63.2144 35.4767 62.6089 36.9385C62.0034 38.4003 61.845 40.0089 62.1537 41.5607C62.4623 43.1126 63.2243 44.538 64.3431 45.6569C65.4619 46.7757 66.8874 47.5376 68.4392 47.8463C69.9911 48.155 71.5996 47.9965 73.0614 47.391C74.5232 46.7855 75.7726 45.7602 76.6517 44.4446C77.5308 43.129 77.9999 41.5823 77.9999 40C77.9976 37.879 77.1539 35.8456 75.6542 34.3458C74.1544 32.846 72.1209 32.0024 69.9999 32ZM69.9999 46C68.8133 46 67.6532 45.6481 66.6665 44.9888C65.6798 44.3295 64.9108 43.3925 64.4567 42.2961C64.0025 41.1997 63.8837 39.9933 64.1152 38.8295C64.3467 37.6656 64.9182 36.5965 65.7573 35.7574C66.5964 34.9182 67.6655 34.3468 68.8294 34.1153C69.9933 33.8838 71.1997 34.0026 72.296 34.4567C73.3924 34.9108 74.3295 35.6799 74.9888 36.6666C75.6481 37.6533 75.9999 38.8133 75.9999 40C75.9983 41.5908 75.3656 43.1159 74.2407 44.2408C73.1159 45.3656 71.5907 45.9983 69.9999 46Z" fill="#263357"/>
</svg>
