<svg width="120" height="120" viewBox="0 0 120 120" fill="none" xmlns="http://www.w3.org/2000/svg">
<rect width="120" height="120" rx="20" fill="white"/>
<path d="M70.0215 45C69.0326 45 68.0659 45.2932 67.2436 45.8427C66.4214 46.3921 65.7805 47.173 65.4021 48.0866C65.0236 49.0002 64.9246 50.0055 65.1176 50.9754C65.3105 51.9454 65.7867 52.8363 66.486 53.5355C67.1852 54.2348 68.0761 54.711 69.046 54.9039C70.0159 55.0968 71.0213 54.9978 71.9349 54.6194C72.8485 54.241 73.6294 53.6001 74.1788 52.7778C74.7282 51.9556 75.0215 50.9889 75.0215 50C75.0215 48.6739 74.4947 47.4021 73.557 46.4645C72.6193 45.5268 71.3476 45 70.0215 45ZM70.0215 52C69.6259 52 69.2392 51.8827 68.9103 51.6629C68.5814 51.4432 68.3251 51.1308 68.1737 50.7654C68.0224 50.3999 67.9827 49.9978 68.0599 49.6098C68.1371 49.2219 68.3276 48.8655 68.6073 48.5858C68.887 48.3061 69.2433 48.1156 69.6313 48.0384C70.0193 47.9613 70.4214 48.0009 70.7868 48.1522C71.1523 48.3036 71.4647 48.56 71.6844 48.8889C71.9042 49.2178 72.0215 49.6044 72.0215 50C72.0215 50.5304 71.8108 51.0391 71.4357 51.4142C71.0606 51.7893 70.5519 52 70.0215 52Z" fill="#80A6FF"/>
<path d="M70.0215 30C66.0659 30 62.1991 31.173 58.9101 33.3706C55.6211 35.5682 53.0577 38.6918 51.5439 42.3463C50.0302 46.0009 49.6341 50.0222 50.4058 53.9018C51.1775 57.7814 53.0823 61.3451 55.8794 64.1421C58.6764 66.9392 62.2401 68.844 66.1197 69.6157C69.9993 70.3874 74.0206 69.9913 77.6752 68.4776C81.3297 66.9638 84.4533 64.4004 86.6509 61.1114C88.8485 57.8224 90.0215 53.9556 90.0215 50C90.0216 47.3735 89.5043 44.7728 88.4993 42.3462C87.4942 39.9197 86.021 37.7148 84.1638 35.8576C82.3067 34.0005 80.1018 32.5273 77.6753 31.5222C75.2487 30.5171 72.648 29.9999 70.0215 30ZM70.0215 66C66.857 66 63.7636 65.0616 61.1324 63.3035C58.5012 61.5454 56.4504 59.0466 55.2394 56.1229C54.0284 53.1993 53.7116 49.9823 54.3289 46.8786C54.9463 43.7749 56.4701 40.9239 58.7078 38.6863C60.9454 36.4487 63.7964 34.9248 66.9 34.3074C70.0037 33.6901 73.2208 34.0069 76.1444 35.2179C79.068 36.4289 81.5669 38.4797 83.325 41.1109C85.0831 43.7421 86.0215 46.8355 86.0215 50C86.0215 54.2435 84.3358 58.3131 81.3352 61.3137C78.3346 64.3143 74.265 66 70.0215 66Z" fill="#80A6FF"/>
<path d="M70.0215 45C69.0326 45 68.0659 45.2932 67.2436 45.8427C66.4214 46.3921 65.7805 47.173 65.4021 48.0866C65.0236 49.0002 64.9246 50.0055 65.1176 50.9754C65.3105 51.9454 65.7867 52.8363 66.486 53.5355C67.1852 54.2348 68.0761 54.711 69.046 54.9039C70.0159 55.0968 71.0213 54.9978 71.9349 54.6194C72.8485 54.241 73.6294 53.6001 74.1788 52.7778C74.7282 51.9556 75.0215 50.9889 75.0215 50C75.0215 48.6739 74.4947 47.4021 73.557 46.4645C72.6193 45.5268 71.3476 45 70.0215 45ZM70.0215 52C69.6259 52 69.2392 51.8827 68.9103 51.6629C68.5814 51.4432 68.3251 51.1308 68.1737 50.7654C68.0224 50.3999 67.9827 49.9978 68.0599 49.6098C68.1371 49.2219 68.3276 48.8655 68.6073 48.5858C68.887 48.3061 69.2433 48.1156 69.6313 48.0384C70.0193 47.9613 70.4214 48.0009 70.7868 48.1522C71.1523 48.3036 71.4647 48.56 71.6844 48.8889C71.9042 49.2178 72.0215 49.6044 72.0215 50C72.0215 50.5304 71.8108 51.0391 71.4357 51.4142C71.0606 51.7893 70.5519 52 70.0215 52Z" fill="#80A6FF"/>
<path d="M70.0215 45C69.0326 45 68.0659 45.2932 67.2436 45.8427C66.4214 46.3921 65.7805 47.173 65.4021 48.0866C65.0236 49.0002 64.9246 50.0055 65.1176 50.9754C65.3105 51.9454 65.7867 52.8363 66.486 53.5355C67.1852 54.2348 68.0761 54.711 69.046 54.9039C70.0159 55.0968 71.0213 54.9978 71.9349 54.6194C72.8485 54.241 73.6294 53.6001 74.1788 52.7778C74.7282 51.9556 75.0215 50.9889 75.0215 50C75.0215 48.6739 74.4947 47.4021 73.557 46.4645C72.6193 45.5268 71.3476 45 70.0215 45ZM70.0215 52C69.6259 52 69.2392 51.8827 68.9103 51.6629C68.5814 51.4432 68.3251 51.1308 68.1737 50.7654C68.0224 50.3999 67.9827 49.9978 68.0599 49.6098C68.1371 49.2219 68.3276 48.8655 68.6073 48.5858C68.887 48.3061 69.2433 48.1156 69.6313 48.0384C70.0193 47.9613 70.4214 48.0009 70.7868 48.1522C71.1523 48.3036 71.4647 48.56 71.6844 48.8889C71.9042 49.2178 72.0215 49.6044 72.0215 50C72.0215 50.5304 71.8108 51.0391 71.4357 51.4142C71.0606 51.7893 70.5519 52 70.0215 52Z" fill="#80A6FF"/>
<path d="M70.0215 45C69.0326 45 68.0659 45.2932 67.2436 45.8427C66.4214 46.3921 65.7805 47.173 65.4021 48.0866C65.0236 49.0002 64.9246 50.0055 65.1176 50.9754C65.3105 51.9454 65.7867 52.8363 66.486 53.5355C67.1852 54.2348 68.0761 54.711 69.046 54.9039C70.0159 55.0968 71.0213 54.9978 71.9349 54.6194C72.8485 54.241 73.6294 53.6001 74.1788 52.7778C74.7282 51.9556 75.0215 50.9889 75.0215 50C75.0215 48.6739 74.4947 47.4021 73.557 46.4645C72.6193 45.5268 71.3476 45 70.0215 45ZM70.0215 52C69.6259 52 69.2392 51.8827 68.9103 51.6629C68.5814 51.4432 68.3251 51.1308 68.1737 50.7654C68.0224 50.3999 67.9827 49.9978 68.0599 49.6098C68.1371 49.2219 68.3276 48.8655 68.6073 48.5858C68.887 48.3061 69.2433 48.1156 69.6313 48.0384C70.0193 47.9613 70.4214 48.0009 70.7868 48.1522C71.1523 48.3036 71.4647 48.56 71.6844 48.8889C71.9042 49.2178 72.0215 49.6044 72.0215 50C72.0215 50.5304 71.8108 51.0391 71.4357 51.4142C71.0606 51.7893 70.5519 52 70.0215 52Z" fill="#80A6FF"/>
<path d="M57.3639 65.4862C56.3296 64.6394 55.382 63.6918 54.5352 62.6575L57.3639 65.4862Z" fill="#80A6FF"/>
<path d="M51.3447 74.2076L36.1172 89.4351C35.9315 89.6208 35.711 89.7682 35.4683 89.8687C35.2256 89.9693 34.9655 90.021 34.7028 90.021C34.4401 90.021 34.18 89.9693 33.9373 89.8687C33.6947 89.7682 33.4742 89.6208 33.2884 89.4351L30.4609 86.6063C30.2752 86.4207 30.1278 86.2003 30.0273 85.9577C29.9267 85.7152 29.875 85.4551 29.875 85.1926C29.875 84.93 29.9267 84.6699 30.0273 84.4274C30.1278 84.1848 30.2752 83.9644 30.4609 83.7788L45.6884 68.55L49.9309 72.7925L51.3447 74.2076Z" fill="#80A6FF"/>
<path d="M70.0216 58C62.4597 58 56.5025 50.9399 56.2526 50.6394C56.1032 50.4598 56.0215 50.2336 56.0215 50C56.0215 49.7664 56.1032 49.5402 56.2526 49.3606C56.5026 49.0606 62.4597 42 70.0216 42C77.5835 42 83.5406 49.0601 83.7905 49.3606C83.9398 49.5402 84.0216 49.7664 84.0216 50C84.0216 50.2336 83.9398 50.4598 83.7905 50.6394C83.5406 50.9399 77.5833 58 70.0216 58ZM58.3748 50C59.9727 51.6649 64.6498 56 70.0216 56C75.3933 56 80.0703 51.6649 81.6682 50C80.071 48.3358 75.3932 44 70.0216 44C64.65 44 59.9727 48.3351 58.3748 50Z" fill="#263357"/>
<path d="M70.0215 56C68.8348 56 67.6748 55.6481 66.6881 54.9888C65.7014 54.3295 64.9323 53.3925 64.4782 52.2961C64.0241 51.1997 63.9053 49.9933 64.1368 48.8295C64.3683 47.6656 64.9397 46.5965 65.7788 45.7574C66.618 44.9182 67.6871 44.3468 68.8509 44.1153C70.0148 43.8838 71.2212 44.0026 72.3176 44.4567C73.4139 44.9109 74.351 45.6799 75.0103 46.6666C75.6696 47.6533 76.0215 48.8133 76.0215 50C76.0197 51.5908 75.387 53.1158 74.2622 54.2407C73.1373 55.3655 71.6122 55.9982 70.0215 56ZM70.0215 46C69.2304 46 68.457 46.2346 67.7992 46.6741C67.1414 47.1137 66.6287 47.7384 66.326 48.4693C66.0232 49.2002 65.944 50.0044 66.0983 50.7804C66.2527 51.5563 66.6336 52.269 67.1931 52.8284C67.7525 53.3878 68.4652 53.7688 69.2411 53.9231C70.017 54.0775 70.8213 53.9983 71.5522 53.6955C72.2831 53.3928 72.9078 52.8801 73.3474 52.2223C73.7869 51.5645 74.0215 50.7911 74.0215 50C74.0203 48.9395 73.5985 47.9227 72.8486 47.1729C72.0987 46.423 71.082 46.0012 70.0215 46Z" fill="#263357"/>
<path d="M70.0215 53C69.4281 53 68.8481 52.8241 68.3548 52.4944C67.8614 52.1648 67.4769 51.6962 67.2498 51.148C67.0228 50.5999 66.9634 49.9967 67.0791 49.4147C67.1949 48.8328 67.4806 48.2982 67.9002 47.8787C68.3197 47.4591 68.8543 47.1734 69.4362 47.0576C70.0182 46.9419 70.6214 47.0013 71.1695 47.2284C71.7177 47.4554 72.1863 47.8399 72.5159 48.3333C72.8455 48.8266 73.0215 49.4067 73.0215 50C73.0206 50.7954 72.7042 51.5579 72.1418 52.1203C71.5794 52.6827 70.8169 52.9991 70.0215 53ZM70.0215 49C69.8237 49 69.6304 49.0586 69.4659 49.1685C69.3015 49.2784 69.1733 49.4346 69.0976 49.6173C69.0219 49.8 69.0021 50.0011 69.0407 50.1951C69.0793 50.3891 69.1745 50.5673 69.3144 50.7071C69.4542 50.847 69.6324 50.9422 69.8264 50.9808C70.0204 51.0194 70.2214 50.9996 70.4042 50.9239C70.5869 50.8482 70.7431 50.72 70.853 50.5556C70.9628 50.3911 71.0215 50.1978 71.0215 50C71.0212 49.7349 70.9157 49.4807 70.7283 49.2932C70.5408 49.1058 70.2866 49.0003 70.0215 49Z" fill="#263357"/>
<path d="M70.0215 67C60.6476 67 53.0215 59.3739 53.0215 50C53.0215 40.6261 60.6476 33 70.0215 33C79.3953 33 87.0215 40.6261 87.0215 50C87.0215 59.3739 79.3952 67 70.0215 67ZM70.0215 35C67.0548 35 64.1547 35.8797 61.6879 37.528C59.2212 39.1762 57.2986 41.5189 56.1633 44.2597C55.028 47.0006 54.7309 50.0166 55.3097 52.9264C55.8885 55.8361 57.3171 58.5088 59.4149 60.6066C61.5127 62.7044 64.1854 64.133 67.0951 64.7118C70.0048 65.2906 73.0208 64.9935 75.7617 63.8582C78.5026 62.7229 80.8453 60.8003 82.4935 58.3336C84.1417 55.8668 85.0215 52.9667 85.0215 50C85.017 46.0231 83.4352 42.2104 80.6231 39.3984C77.811 36.5863 73.9983 35.0045 70.0215 35Z" fill="#263357"/>
<path d="M70.0215 71C58.442 71 49.0215 61.5795 49.0215 50C49.0215 38.4205 58.442 29 70.0215 29C81.601 29 91.0215 38.4205 91.0215 50C91.0215 61.5795 81.6006 71 70.0215 71ZM70.0215 31C59.5449 31 51.0215 39.5234 51.0215 50C51.0215 60.4766 59.5449 69 70.0215 69C80.4981 69 89.0215 60.4766 89.0215 50C89.0215 39.5234 80.498 31 70.0215 31Z" fill="#263357"/>
<path d="M49.9309 73.7926C49.7996 73.7928 49.6696 73.7671 49.5483 73.7169C49.4269 73.6667 49.3167 73.593 49.2239 73.5001L46.3965 70.6726C46.3031 70.5792 46.2291 70.4683 46.1789 70.3462C46.1286 70.2242 46.103 70.0933 46.1035 69.9613C46.1041 69.8293 46.1308 69.6987 46.182 69.577C46.2333 69.4553 46.3082 69.345 46.4023 69.2525L53.8336 61.945C54.0227 61.759 54.2779 61.6558 54.5431 61.658C54.8083 61.6602 55.0618 61.7677 55.2478 61.9568C55.4337 62.1459 55.537 62.4011 55.5347 62.6663C55.5325 62.9315 55.425 63.185 55.2359 63.371L48.5235 69.971L49.9377 71.3843L56.6627 64.7732C56.7563 64.6812 56.8672 64.6084 56.989 64.5592C57.1107 64.51 57.241 64.4852 57.3723 64.4864C57.5036 64.4875 57.6334 64.5145 57.7543 64.5657C57.8752 64.617 57.9848 64.6916 58.0769 64.7853C58.1689 64.8789 58.2417 64.9898 58.2909 65.1116C58.3401 65.2333 58.3649 65.3636 58.3637 65.4949C58.3626 65.6262 58.3356 65.756 58.2844 65.8769C58.2331 65.9978 58.1585 66.1074 58.0648 66.1995L50.6322 73.5057C50.4453 73.6899 50.1933 73.793 49.9309 73.7926Z" fill="#263357"/>
<path d="M34.7034 91.0194C34.3094 91.0201 33.9193 90.9429 33.5552 90.7924C33.1912 90.6419 32.8605 90.4209 32.5821 90.1423L29.7537 87.3138C29.4751 87.0352 29.2542 86.7044 29.1034 86.3405C28.9526 85.9765 28.875 85.5864 28.875 85.1924C28.875 84.7984 28.9526 84.4083 29.1034 84.0443C29.2542 83.6803 29.4751 83.3496 29.7537 83.071L44.9816 67.8431C45.0745 67.7502 45.1847 67.6766 45.306 67.6263C45.4274 67.5761 45.5574 67.5502 45.6887 67.5502C45.8201 67.5502 45.9501 67.5761 46.0714 67.6263C46.1928 67.6766 46.303 67.7502 46.3959 67.8431L52.0526 73.5C52.2401 73.6875 52.3455 73.9419 52.3455 74.2071C52.3455 74.4722 52.2401 74.7266 52.0526 74.9141L36.825 90.1421C36.5466 90.4209 36.2158 90.6419 35.8517 90.7925C35.4876 90.943 35.0974 91.0201 34.7034 91.0194ZM45.6887 69.9645L31.1679 84.4852C31.075 84.5781 31.0013 84.6884 30.9511 84.8097C30.9008 84.931 30.8749 85.061 30.8749 85.1924C30.8749 85.3237 30.9008 85.4537 30.9511 85.5751C31.0013 85.6964 31.075 85.8066 31.1679 85.8995L33.9962 88.728C34.184 88.9152 34.4382 89.0203 34.7034 89.0203C34.9685 89.0203 35.2228 88.9152 35.4105 88.728L49.9314 74.2071L45.6887 69.9645Z" fill="#263357"/>
<path d="M36.7715 83.1251C36.5737 83.1251 36.3804 83.0665 36.2159 82.9566C36.0515 82.8467 35.9233 82.6905 35.8476 82.5078C35.7719 82.3251 35.7521 82.124 35.7907 81.93C35.8293 81.736 35.9245 81.5578 36.0644 81.418L41.5644 75.918C41.7523 75.7323 42.0061 75.6286 42.2702 75.6294C42.5344 75.6302 42.7875 75.7355 42.9743 75.9223C43.1611 76.1091 43.2664 76.3622 43.2672 76.6264C43.268 76.8906 43.1642 77.1443 42.9785 77.3322L37.4785 82.8322C37.3858 82.9252 37.2756 82.999 37.1542 83.0492C37.0329 83.0995 36.9029 83.1253 36.7715 83.1251Z" fill="#263357"/>
<path d="M33.2715 86.6251C33.0737 86.6251 32.8804 86.5665 32.7159 86.4566C32.5515 86.3467 32.4233 86.1905 32.3476 86.0078C32.2719 85.8251 32.2521 85.624 32.2907 85.43C32.3293 85.236 32.4245 85.0578 32.5644 84.918L33.5644 83.918C33.7523 83.7323 34.0061 83.6286 34.2702 83.6294C34.5344 83.6302 34.7875 83.7355 34.9743 83.9223C35.1611 84.1091 35.2664 84.3622 35.2672 84.6264C35.268 84.8906 35.1642 85.1443 34.9785 85.3322L33.9785 86.3322C33.8858 86.4252 33.7756 86.499 33.6542 86.5492C33.5329 86.5995 33.4029 86.6253 33.2715 86.6251Z" fill="#263357"/>
</svg>
