<svg width="120" height="120" viewBox="0 0 120 120" fill="none" xmlns="http://www.w3.org/2000/svg">
<rect width="120" height="120" rx="20" fill="white"/>
<path d="M87.5 35H32.5C32.1717 34.9999 31.8465 35.0645 31.5432 35.1901C31.2398 35.3157 30.9642 35.4998 30.732 35.732C30.4998 35.9642 30.3157 36.2398 30.1901 36.5432C30.0645 36.8465 29.9999 37.1717 30 37.5V71H90V37.5C90.0001 37.1717 89.9355 36.8465 89.8099 36.5432C89.6843 36.2398 89.5002 35.9642 89.268 35.732C89.0358 35.4998 88.7602 35.3157 88.4568 35.1901C88.1535 35.0645 87.8283 34.9999 87.5 35ZM42 57C41.6044 57 41.2178 56.8827 40.8889 56.6629C40.56 56.4432 40.3036 56.1308 40.1522 55.7654C40.0009 55.3999 39.9613 54.9978 40.0384 54.6098C40.1156 54.2219 40.3061 53.8655 40.5858 53.5858C40.8655 53.3061 41.2219 53.1156 41.6098 53.0384C41.9978 52.9613 42.3999 53.0009 42.7654 53.1522C43.1308 53.3036 43.4432 53.56 43.6629 53.8889C43.8827 54.2178 44 54.6044 44 55C44 55.5304 43.7893 56.0391 43.4142 56.4142C43.0391 56.7893 42.5304 57 42 57ZM54 57C53.6044 57 53.2178 56.8827 52.8889 56.6629C52.56 56.4432 52.3036 56.1308 52.1522 55.7654C52.0009 55.3999 51.9613 54.9978 52.0384 54.6098C52.1156 54.2219 52.3061 53.8655 52.5858 53.5858C52.8655 53.3061 53.2219 53.1156 53.6098 53.0384C53.9978 52.9613 54.3999 53.0009 54.7654 53.1522C55.1308 53.3036 55.4432 53.56 55.6629 53.8889C55.8827 54.2178 56 54.6044 56 55C56 55.5304 55.7893 56.0391 55.4142 56.4142C55.0391 56.7893 54.5304 57 54 57ZM54 50C54 50 49 45.7612 49 43C49 41.6739 49.5268 40.4021 50.4645 39.4645C51.4021 38.5268 52.6739 38 54 38C55.3261 38 56.5979 38.5268 57.5355 39.4645C58.4732 40.4021 59 41.6739 59 43C59 45.7612 54 50 54 50ZM64 55C64 54.6044 64.1173 54.2178 64.3371 53.8889C64.5568 53.56 64.8692 53.3036 65.2346 53.1522C65.6001 53.0009 66.0022 52.9613 66.3902 53.0384C66.7781 53.1156 67.1345 53.3061 67.4142 53.5858C67.6939 53.8655 67.8844 54.2219 67.9616 54.6098C68.0387 54.9978 67.9991 55.3999 67.8478 55.7654C67.6964 56.1308 67.44 56.4432 67.1111 56.6629C66.7822 56.8827 66.3956 57 66 57C65.4696 57 64.9609 56.7893 64.5858 56.4142C64.2107 56.0391 64 55.5304 64 55ZM75 68H65V63H67V59L71 63H75V68ZM78 57C77.6044 57 77.2178 56.8827 76.8889 56.6629C76.56 56.4432 76.3036 56.1308 76.1522 55.7654C76.0009 55.3999 75.9613 54.9978 76.0384 54.6098C76.1156 54.2219 76.3061 53.8655 76.5858 53.5858C76.8655 53.3061 77.2219 53.1156 77.6098 53.0384C77.9978 52.9613 78.3999 53.0009 78.7654 53.1522C79.1308 53.3036 79.4432 53.56 79.6629 53.8889C79.8827 54.2178 80 54.6044 80 55C80 55.5304 79.7893 56.0391 79.4142 56.4142C79.0391 56.7893 78.5304 57 78 57ZM80 46H78V50L74 46H70V41H80V46Z" fill="#80A6FF"/>
<path d="M52 77L51 82H69L67.875 77H52Z" fill="#80A6FF"/>
<path d="M54 45C55.1046 45 56 44.1046 56 43C56 41.8954 55.1046 41 54 41C52.8954 41 52 41.8954 52 43C52 44.1046 52.8954 45 54 45Z" fill="#80A6FF"/>
<path d="M87.5 34H32.5C31.5721 34.001 30.6824 34.3701 30.0263 35.0263C29.3701 35.6824 29.001 36.5721 29 37.5V74.5C29.001 75.4279 29.3701 76.3176 30.0263 76.9737C30.6824 77.6299 31.5721 77.999 32.5 78H50.78L50.18 81H45C44.7348 81 44.4804 81.1054 44.2929 81.2929C44.1054 81.4804 44 81.7348 44 82V85C44 85.2652 44.1054 85.5196 44.2929 85.7071C44.4804 85.8946 44.7348 86 45 86H75C75.2652 86 75.5196 85.8946 75.7071 85.7071C75.8946 85.5196 76 85.2652 76 85V82C76 81.7348 75.8946 81.4804 75.7071 81.2929C75.5196 81.1054 75.2652 81 75 81H69.8L69.125 78H87.5C88.4279 77.999 89.3176 77.6299 89.9737 76.9737C90.6299 76.3176 90.999 75.4279 91 74.5V37.5C90.999 36.5721 90.6299 35.6824 89.9737 35.0263C89.3176 34.3701 88.4279 34.001 87.5 34ZM74 83V84H46V83H74ZM52.22 81L52.82 78H67.075L67.75 81H52.22ZM89 74.5C88.9997 74.8977 88.8415 75.2791 88.5603 75.5603C88.2791 75.8415 87.8977 75.9997 87.5 76H32.5C32.1023 75.9997 31.7209 75.8415 31.4397 75.5603C31.1585 75.2791 31.0003 74.8977 31 74.5V72H89V74.5ZM89 70H31V37.5C31.0003 37.1023 31.1585 36.7209 31.4397 36.4397C31.7209 36.1585 32.1023 36.0003 32.5 36H87.5C87.8977 36.0003 88.2791 36.1585 88.5603 36.4397C88.8415 36.7209 88.9997 37.1023 89 37.5V70Z" fill="#263357"/>
<path d="M34 56H39.172C39.379 56.5846 39.762 57.0907 40.2685 57.4487C40.7749 57.8066 41.3798 57.9988 42 57.9988C42.6202 57.9988 43.2251 57.8066 43.7315 57.4487C44.238 57.0907 44.621 56.5846 44.828 56H51.172C51.379 56.5846 51.762 57.0907 52.2685 57.4487C52.7749 57.8066 53.3798 57.9988 54 57.9988C54.6202 57.9988 55.2251 57.8066 55.7315 57.4487C56.238 57.0907 56.621 56.5846 56.828 56H63.172C63.379 56.5846 63.762 57.0907 64.2685 57.4487C64.7749 57.8066 65.3798 57.9988 66 57.9988C66.6202 57.9988 67.2251 57.8066 67.7315 57.4487C68.238 57.0907 68.621 56.5846 68.828 56H75.172C75.379 56.5846 75.762 57.0907 76.2685 57.4487C76.7749 57.8066 77.3798 57.9988 78 57.9988C78.6202 57.9988 79.2251 57.8066 79.7315 57.4487C80.238 57.0907 80.621 56.5846 80.828 56H86C86.2652 56 86.5196 55.8947 86.7071 55.7071C86.8946 55.5196 87 55.2652 87 55C87 54.7348 86.8946 54.4804 86.7071 54.2929C86.5196 54.1054 86.2652 54 86 54H80.828C80.621 53.4154 80.238 52.9093 79.7315 52.5514C79.2251 52.1934 78.6202 52.0012 78 52.0012C77.3798 52.0012 76.7749 52.1934 76.2685 52.5514C75.762 52.9093 75.379 53.4154 75.172 54H68.828C68.621 53.4154 68.238 52.9093 67.7315 52.5514C67.2251 52.1934 66.6202 52.0012 66 52.0012C65.3798 52.0012 64.7749 52.1934 64.2685 52.5514C63.762 52.9093 63.379 53.4154 63.172 54H56.828C56.621 53.4154 56.238 52.9093 55.7315 52.5514C55.2251 52.1934 54.6202 52.0012 54 52.0012C53.3798 52.0012 52.7749 52.1934 52.2685 52.5514C51.762 52.9093 51.379 53.4154 51.172 54H44.828C44.621 53.4154 44.238 52.9093 43.7315 52.5514C43.2251 52.1934 42.6202 52.0012 42 52.0012C41.3798 52.0012 40.7749 52.1934 40.2685 52.5514C39.762 52.9093 39.379 53.4154 39.172 54H34C33.7348 54 33.4804 54.1054 33.2929 54.2929C33.1054 54.4804 33 54.7348 33 55C33 55.2652 33.1054 55.5196 33.2929 55.7071C33.4804 55.8947 33.7348 56 34 56ZM78 54C78.1978 54 78.3911 54.0587 78.5556 54.1685C78.72 54.2784 78.8482 54.4346 78.9239 54.6173C78.9996 54.8001 79.0194 55.0011 78.9808 55.1951C78.9422 55.3891 78.847 55.5673 78.7071 55.7071C78.5673 55.847 78.3891 55.9422 78.1951 55.9808C78.0011 56.0194 77.8 55.9996 77.6173 55.9239C77.4346 55.8482 77.2784 55.72 77.1685 55.5556C77.0586 55.3911 77 55.1978 77 55C77.0003 54.7349 77.1057 54.4807 77.2932 54.2932C77.4807 54.1058 77.7349 54.0003 78 54ZM66 54C66.1978 54 66.3911 54.0587 66.5556 54.1685C66.72 54.2784 66.8482 54.4346 66.9239 54.6173C66.9996 54.8001 67.0194 55.0011 66.9808 55.1951C66.9422 55.3891 66.847 55.5673 66.7071 55.7071C66.5673 55.847 66.3891 55.9422 66.1951 55.9808C66.0011 56.0194 65.8 55.9996 65.6173 55.9239C65.4346 55.8482 65.2784 55.72 65.1685 55.5556C65.0586 55.3911 65 55.1978 65 55C65.0003 54.7349 65.1057 54.4807 65.2932 54.2932C65.4807 54.1058 65.7349 54.0003 66 54ZM54 54C54.1978 54 54.3911 54.0587 54.5556 54.1685C54.72 54.2784 54.8482 54.4346 54.9239 54.6173C54.9996 54.8001 55.0194 55.0011 54.9808 55.1951C54.9422 55.3891 54.847 55.5673 54.7071 55.7071C54.5673 55.847 54.3891 55.9422 54.1951 55.9808C54.0011 56.0194 53.8 55.9996 53.6173 55.9239C53.4346 55.8482 53.2784 55.72 53.1685 55.5556C53.0586 55.3911 53 55.1978 53 55C53.0003 54.7349 53.1058 54.4807 53.2932 54.2932C53.4807 54.1058 53.7349 54.0003 54 54ZM42 54C42.1978 54 42.3911 54.0587 42.5556 54.1685C42.72 54.2784 42.8482 54.4346 42.9239 54.6173C42.9996 54.8001 43.0194 55.0011 42.9808 55.1951C42.9422 55.3891 42.847 55.5673 42.7071 55.7071C42.5673 55.847 42.3891 55.9422 42.1951 55.9808C42.0011 56.0194 41.8 55.9996 41.6173 55.9239C41.4346 55.8482 41.2784 55.72 41.1685 55.5556C41.0586 55.3911 41 55.1978 41 55C41.0003 54.7349 41.1058 54.4807 41.2932 54.2932C41.4807 54.1058 41.7349 54.0003 42 54Z" fill="#263357"/>
<path d="M57 43C57 42.4067 56.8241 41.8266 56.4944 41.3333C56.1648 40.8399 55.6962 40.4554 55.148 40.2284C54.5999 40.0013 53.9967 39.9419 53.4147 40.0576C52.8328 40.1734 52.2982 40.4591 51.8787 40.8787C51.4591 41.2982 51.1734 41.8328 51.0576 42.4147C50.9419 42.9967 51.0013 43.5999 51.2284 44.148C51.4554 44.6962 51.8399 45.1648 52.3333 45.4944C52.8266 45.8241 53.4067 46 54 46C54.7954 45.9991 55.5579 45.6827 56.1203 45.1203C56.6827 44.5579 56.9991 43.7954 57 43ZM53 43C53 42.8022 53.0586 42.6089 53.1685 42.4444C53.2784 42.28 53.4346 42.1518 53.6173 42.0761C53.8 42.0004 54.0011 41.9806 54.1951 42.0192C54.3891 42.0578 54.5673 42.153 54.7071 42.2929C54.847 42.4327 54.9422 42.6109 54.9808 42.8049C55.0194 42.9989 54.9996 43.2 54.9239 43.3827C54.8482 43.5654 54.72 43.7216 54.5556 43.8315C54.3911 43.9414 54.1978 44 54 44C53.7349 43.9997 53.4807 43.8942 53.2932 43.7068C53.1058 43.5193 53.0003 43.2651 53 43Z" fill="#263357"/>
<path d="M54 37C52.4092 37.0017 50.8841 37.6344 49.7592 38.7592C48.6344 39.8841 48.0017 41.4092 48 43C48 44.4175 48.9 46.1188 50.7525 48.2C51.5644 49.1085 52.4332 49.9643 53.3538 50.7625C53.5342 50.9158 53.7632 51 54 51C54.2368 51 54.4658 50.9158 54.6462 50.7625C55.5668 49.9643 56.4356 49.1085 57.2475 48.2C59.1 46.1188 60 44.4175 60 43C59.9983 41.4092 59.3656 39.8841 58.2408 38.7592C57.1159 37.6344 55.5908 37.0017 54 37ZM54.0037 48.66C53.5437 48.2312 52.895 47.5988 52.2475 46.8713C50.8187 45.2663 50 43.855 50 43C50 41.9391 50.4214 40.9217 51.1716 40.1716C51.9217 39.4214 52.9391 39 54 39C55.0609 39 56.0783 39.4214 56.8284 40.1716C57.5786 40.9217 58 41.9391 58 43C58 44.48 55.7638 47.035 54.0037 48.66Z" fill="#263357"/>
<path d="M75 62H71.4141L67.7071 58.2929C67.5673 58.153 67.3891 58.0578 67.1951 58.0192C67.0011 57.9806 66.8 58.0004 66.6173 58.0761C66.4346 58.1518 66.2784 58.28 66.1685 58.4444C66.0586 58.6089 66 58.8022 66 59V62H65C64.7348 62 64.4804 62.1054 64.2929 62.2929C64.1054 62.4804 64 62.7348 64 63V68C64 68.2652 64.1054 68.5196 64.2929 68.7071C64.4804 68.8947 64.7348 69 65 69H75C75.2652 69 75.5196 68.8947 75.7071 68.7071C75.8946 68.5196 76 68.2652 76 68V63C76 62.7348 75.8946 62.4804 75.7071 62.2929C75.5196 62.1054 75.2652 62 75 62ZM74 67H66V64H67C67.2652 64 67.5196 63.8947 67.7071 63.7071C67.8946 63.5196 68 63.2652 68 63V61.4141L70.2929 63.7071C70.3857 63.8 70.496 63.8737 70.6173 63.9239C70.7386 63.9742 70.8687 64 71 64H74V67Z" fill="#263357"/>
<path d="M70 47H73.5859L77.2929 50.7071C77.4327 50.847 77.6109 50.9422 77.8049 50.9808C77.9989 51.0194 78.2 50.9996 78.3827 50.9239C78.5654 50.8482 78.7216 50.72 78.8315 50.5556C78.9414 50.3911 79 50.1978 79 50V47H80C80.2652 47 80.5196 46.8946 80.7071 46.7071C80.8946 46.5196 81 46.2652 81 46V41C81 40.7348 80.8946 40.4804 80.7071 40.2929C80.5196 40.1054 80.2652 40 80 40H70C69.7348 40 69.4804 40.1054 69.2929 40.2929C69.1054 40.4804 69 40.7348 69 41V46C69 46.2652 69.1054 46.5196 69.2929 46.7071C69.4804 46.8946 69.7348 47 70 47ZM71 42H79V45H78C77.7348 45 77.4804 45.1054 77.2929 45.2929C77.1054 45.4804 77 45.7348 77 46V47.5859L74.7071 45.2929C74.6143 45.2 74.504 45.1264 74.3827 45.0761C74.2614 45.0259 74.1313 45 74 45H71V42Z" fill="#263357"/>
</svg>
