<svg width="40" height="40" viewBox="0 0 40 40" fill="none" xmlns="http://www.w3.org/2000/svg">
<rect x="0.5" y="0.5" width="39" height="39" rx="19.5" stroke="#E0E5E8"/>
<g clip-path="url(#clip0_3_548)">
<path d="M27.996 28.0017V28.001H28V22.133C28 19.2624 27.382 17.051 24.026 17.051C22.4126 17.051 21.33 17.9364 20.888 18.7757H20.8413V17.319H17.6593V28.001H20.9726V22.7117C20.9726 21.319 21.2366 19.9724 22.9613 19.9724C24.6606 19.9724 24.686 21.5617 24.686 22.801V28.0017H27.996Z" fill="#4079FF"/>
<path d="M12.2638 17.3193H15.5811V28.0013H12.2638V17.3193Z" fill="#4079FF"/>
<path d="M13.9215 12.002C12.8608 12.002 12.0001 12.8626 12.0001 13.9233C12.0001 14.984 12.8608 15.8626 13.9215 15.8626C14.9821 15.8626 15.8428 14.984 15.8428 13.9233C15.8421 12.8626 14.9815 12.002 13.9215 12.002V12.002Z" fill="#4079FF"/>
</g>
<defs>
<clipPath id="clip0_3_548">
<rect width="16" height="16" fill="white" transform="translate(12.0001 12.002)"/>
</clipPath>
</defs>
</svg>
