<svg width="40" height="40" viewBox="0 0 40 40" fill="none" xmlns="http://www.w3.org/2000/svg">
<rect x="0.5" y="0.5" width="39" height="39" rx="19.5" stroke="#E0E5E8"/>
<g clip-path="url(#clip0_3_554)">
<path d="M27.9844 16.706C27.9469 15.8559 27.8095 15.2714 27.6125 14.7649C27.4093 14.2274 27.0968 13.7461 26.6873 13.346C26.2872 12.9396 25.8027 12.6239 25.2714 12.4239C24.762 12.227 24.1806 12.0895 23.3304 12.052C22.4739 12.0114 22.202 12.002 20.0297 12.002C17.8575 12.002 17.5855 12.0114 16.7322 12.0488C15.8821 12.0863 15.2976 12.2239 14.7913 12.4207C14.2536 12.6239 13.7723 12.9365 13.3722 13.346C12.9659 13.7461 12.6503 14.2305 12.4502 14.7619C12.2532 15.2714 12.1157 15.8527 12.0783 16.7028C12.0376 17.5593 12.0282 17.8312 12.0282 20.0035C12.0282 22.1758 12.0376 22.4477 12.0751 23.301C12.1126 24.1512 12.2502 24.7356 12.4471 25.2421C12.6503 25.7797 12.9659 26.261 13.3722 26.6611C13.7723 27.0674 14.2568 27.3831 14.7881 27.5831C15.2976 27.7801 15.8789 27.9175 16.7292 27.955C17.5824 27.9926 17.8544 28.0019 20.0267 28.0019C22.199 28.0019 22.4709 27.9926 23.3242 27.955C24.1743 27.9175 24.7588 27.7801 25.2651 27.5831C26.3404 27.1674 27.1906 26.3172 27.6063 25.2421C27.8031 24.7326 27.9407 24.1512 27.9782 23.301C28.0157 22.4477 28.0251 22.1758 28.0251 20.0035C28.0251 17.8312 28.0219 17.5593 27.9844 16.706ZM26.5436 23.2385C26.5092 24.0199 26.3779 24.4419 26.2685 24.7232C25.9997 25.4202 25.4464 25.9734 24.7494 26.2423C24.4681 26.3517 24.0431 26.4829 23.2647 26.5172C22.4208 26.5548 22.1677 26.5641 20.0329 26.5641C17.8981 26.5641 17.6418 26.5548 16.801 26.5172C16.0196 26.4829 15.5976 26.3517 15.3163 26.2423C14.9694 26.1141 14.6537 25.9109 14.3974 25.6452C14.1318 25.3858 13.9286 25.0732 13.8004 24.7264C13.691 24.4451 13.5597 24.0199 13.5254 23.2417C13.4878 22.3978 13.4786 22.1446 13.4786 20.0097C13.4786 17.8749 13.4878 17.6187 13.5254 16.7779C13.5597 15.9965 13.691 15.5746 13.8004 15.2932C13.9286 14.9463 14.1318 14.6306 14.4006 14.3742C14.6599 14.1086 14.9725 13.9054 15.3195 13.7773C15.6008 13.6679 16.0259 13.5367 16.8041 13.5022C17.6481 13.4648 17.9013 13.4554 20.036 13.4554C22.174 13.4554 22.4271 13.4648 23.2679 13.5022C24.0493 13.5367 24.4713 13.6679 24.7526 13.7773C25.0995 13.9054 25.4152 14.1086 25.6715 14.3742C25.9371 14.6337 26.1403 14.9463 26.2685 15.2932C26.3779 15.5746 26.5092 15.9996 26.5436 16.7779C26.5811 17.6218 26.5905 17.8749 26.5905 20.0097C26.5905 22.1446 26.5811 22.3946 26.5436 23.2385Z" fill="#4079FF"/>
<path d="M20.0298 15.8937C17.7607 15.8937 15.9196 17.7346 15.9196 20.0039C15.9196 22.2731 17.7607 24.114 20.0298 24.114C22.2991 24.114 24.14 22.2731 24.14 20.0039C24.14 17.7346 22.2991 15.8937 20.0298 15.8937ZM20.0298 22.67C18.5577 22.67 17.3636 21.4761 17.3636 20.0039C17.3636 18.5316 18.5577 17.3377 20.0298 17.3377C21.502 17.3377 22.696 18.5316 22.696 20.0039C22.696 21.4761 21.502 22.67 20.0298 22.67Z" fill="#4079FF"/>
<path d="M25.2626 15.7299C25.2626 16.2598 24.8329 16.6895 24.3029 16.6895C23.773 16.6895 23.3433 16.2598 23.3433 15.7299C23.3433 15.1999 23.773 14.7704 24.3029 14.7704C24.8329 14.7704 25.2626 15.1999 25.2626 15.7299Z" fill="#4079FF"/>
</g>
<defs>
<clipPath id="clip0_3_554">
<rect width="16" height="16" fill="white" transform="translate(12 12.002)"/>
</clipPath>
</defs>
</svg>
