<svg width="234" height="43" viewBox="0 0 234 43" fill="none" xmlns="http://www.w3.org/2000/svg">
<path d="M64.1305 24.4366H59.4833V33.6816H55.314V9.6875H63.7515C66.52 9.6875 68.6569 10.3082 70.162 11.5497C71.6671 12.7911 72.4197 14.5874 72.4197 16.9385C72.4197 18.5425 72.0297 19.8883 71.2496 20.976C70.4806 22.0526 69.4039 22.8821 68.0197 23.4644L73.4084 33.4674V33.6816H68.9425L64.1305 24.4366ZM59.4833 21.0913H63.7679C65.1742 21.0913 66.2728 20.7397 67.0638 20.0366C67.8549 19.3225 68.2504 18.3502 68.2504 17.1198C68.2504 15.8344 67.8823 14.8401 67.1462 14.137C66.4211 13.4338 65.3335 13.0713 63.8833 13.0493H59.4833V21.0913Z" fill="#333333"/>
<path d="M75.2377 24.6014C75.2377 22.8546 75.5837 21.2836 76.2759 19.8883C76.968 18.4821 77.9403 17.4054 79.1927 16.6583C80.4452 15.9003 81.8844 15.5212 83.5104 15.5212C85.9164 15.5212 87.8665 16.2958 89.3606 17.8448C90.8657 19.3939 91.6787 21.4484 91.7996 24.0082L91.816 24.9475C91.816 26.7053 91.4755 28.2764 90.7943 29.6606C90.1241 31.0449 89.1573 32.1161 87.8939 32.8741C86.6415 33.6322 85.1913 34.0112 83.5433 34.0112C81.0275 34.0112 79.0115 33.1763 77.4954 31.5063C75.9902 29.8254 75.2377 27.5897 75.2377 24.7992V24.6014ZM79.2422 24.9475C79.2422 26.7822 79.6212 28.2214 80.3793 29.2651C81.1373 30.2979 82.192 30.8142 83.5433 30.8142C84.8947 30.8142 85.9438 30.2869 86.6909 29.2322C87.449 28.1775 87.828 26.6339 87.828 24.6014C87.828 22.7997 87.438 21.3715 86.658 20.3168C85.8889 19.2621 84.8397 18.7347 83.5104 18.7347C82.203 18.7347 81.1648 19.2566 80.3958 20.3003C79.6267 21.333 79.2422 22.8821 79.2422 24.9475Z" fill="#333333"/>
<path d="M94.4528 24.6014C94.4528 22.8546 94.7988 21.2836 95.491 19.8883C96.1831 18.4821 97.1554 17.4054 98.4078 16.6583C99.6603 15.9003 101.099 15.5212 102.725 15.5212C105.131 15.5212 107.082 16.2958 108.576 17.8448C110.081 19.3939 110.894 21.4484 111.015 24.0082L111.031 24.9475C111.031 26.7053 110.691 28.2764 110.009 29.6606C109.339 31.0449 108.372 32.1161 107.109 32.8741C105.857 33.6322 104.406 34.0112 102.758 34.0112C100.243 34.0112 98.2266 33.1763 96.7104 31.5063C95.2053 29.8254 94.4528 27.5897 94.4528 24.7992V24.6014ZM98.4573 24.9475C98.4573 26.7822 98.8363 28.2214 99.5944 29.2651C100.352 30.2979 101.407 30.8142 102.758 30.8142C104.11 30.8142 105.159 30.2869 105.906 29.2322C106.664 28.1775 107.043 26.6339 107.043 24.6014C107.043 22.7997 106.653 21.3715 105.873 20.3168C105.104 19.2621 104.055 18.7347 102.725 18.7347C101.418 18.7347 100.38 19.2566 99.6108 20.3003C98.8418 21.333 98.4573 22.8821 98.4573 24.9475Z" fill="#333333"/>
<path d="M118.183 15.8508L118.299 17.713C119.551 16.2518 121.265 15.5212 123.44 15.5212C125.824 15.5212 127.456 16.4331 128.335 18.2568C129.631 16.4331 131.455 15.5212 133.806 15.5212C135.772 15.5212 137.234 16.0651 138.189 17.1527C139.156 18.2404 139.651 19.8444 139.672 21.9647V33.6816H135.668V22.0801C135.668 20.9485 135.421 20.119 134.926 19.5917C134.432 19.0643 133.614 18.8007 132.471 18.8007C131.559 18.8007 130.812 19.0479 130.23 19.5422C129.658 20.0256 129.257 20.6628 129.027 21.4539L129.043 33.6816H125.039V21.9482C124.984 19.8499 123.913 18.8007 121.825 18.8007C120.221 18.8007 119.084 19.4543 118.414 20.7617V33.6816H114.409V15.8508H118.183Z" fill="#333333"/>
<path d="M146.099 15.8508L146.165 18.7512C146.825 17.6746 147.649 16.8671 148.637 16.3287C149.626 15.7904 150.725 15.5212 151.933 15.5212C154.746 15.5212 156.531 16.6748 157.289 18.9819C157.926 17.8723 158.778 17.0209 159.843 16.4276C160.909 15.8234 162.085 15.5212 163.37 15.5212C167.193 15.5212 169.143 17.6086 169.22 21.7834V33.6816H167.243V21.9318C167.232 20.3387 166.886 19.1577 166.204 18.3887C165.534 17.6196 164.436 17.2351 162.909 17.2351C161.491 17.2571 160.294 17.7185 159.316 18.6194C158.338 19.5093 157.794 20.5969 157.685 21.8823V33.6816H155.707V21.7834C155.696 20.2563 155.333 19.1193 154.619 18.3722C153.916 17.6141 152.829 17.2351 151.356 17.2351C150.115 17.2351 149.049 17.5922 148.159 18.3063C147.27 19.0094 146.61 20.0586 146.182 21.4539V33.6816H144.204V15.8508H146.099Z" fill="#333333"/>
<path d="M185.485 33.6816C185.288 33.1213 185.161 32.2919 185.106 31.1932C184.414 32.0941 183.53 32.7917 182.453 33.2861C181.388 33.7695 180.256 34.0112 179.058 34.0112C177.345 34.0112 175.955 33.5333 174.889 32.5775C173.834 31.6217 173.307 30.4132 173.307 28.952C173.307 27.2162 174.027 25.8429 175.466 24.8322C176.916 23.8214 178.932 23.316 181.514 23.316H185.09V21.2891C185.09 20.0146 184.694 19.0149 183.903 18.2898C183.123 17.5537 181.981 17.1857 180.476 17.1857C179.102 17.1857 177.965 17.5372 177.064 18.2404C176.164 18.9435 175.713 19.7894 175.713 20.7782L173.736 20.7617C173.736 19.3445 174.395 18.1195 175.713 17.0868C177.031 16.0431 178.652 15.5212 180.575 15.5212C182.563 15.5212 184.129 16.0211 185.271 17.0209C186.425 18.0096 187.018 19.3939 187.051 21.1737V29.6112C187.051 31.3361 187.232 32.627 187.595 33.4839V33.6816H185.485ZM179.289 32.2644C180.608 32.2644 181.783 31.9458 182.816 31.3086C183.859 30.6714 184.618 29.8199 185.09 28.7543V24.8322H181.563C179.597 24.8541 178.059 25.2167 176.949 25.9198C175.839 26.6119 175.285 27.5677 175.285 28.7872C175.285 29.787 175.653 30.6165 176.389 31.2756C177.136 31.9348 178.103 32.2644 179.289 32.2644Z" fill="#333333"/>
<path d="M195.39 11.286V15.8508H199.081V17.4658H195.39V29.3475C195.39 30.3363 195.565 31.0724 195.917 31.5558C196.28 32.0392 196.878 32.2809 197.713 32.2809C198.043 32.2809 198.576 32.226 199.312 32.1161L199.394 33.7311C198.878 33.9178 198.175 34.0112 197.285 34.0112C195.933 34.0112 194.95 33.6212 194.335 32.8412C193.72 32.0502 193.412 30.8911 193.412 29.364V17.4658H190.133V15.8508H193.412V11.286H195.39Z" fill="#333333"/>
<path d="M210.073 34.0112C208.557 34.0112 207.183 33.6377 205.953 32.8906C204.734 32.1436 203.783 31.1053 203.102 29.776C202.421 28.4357 202.08 26.936 202.08 25.2771V24.5685C202.08 22.8546 202.41 21.311 203.069 19.9377C203.739 18.5645 204.668 17.4878 205.854 16.7078C207.041 15.9167 208.326 15.5212 209.71 15.5212C211.875 15.5212 213.589 16.2628 214.852 17.746C216.126 19.2181 216.764 21.2341 216.764 23.7939V24.8981H204.041V25.2771C204.041 27.2986 204.618 28.985 205.772 30.3363C206.936 31.6766 208.397 32.3468 210.155 32.3468C211.21 32.3468 212.138 32.1545 212.94 31.77C213.753 31.3855 214.489 30.7703 215.149 29.9243L216.385 30.8636C214.934 32.962 212.83 34.0112 210.073 34.0112ZM209.71 17.2021C208.227 17.2021 206.975 17.746 205.953 18.8336C204.942 19.9213 204.327 21.3824 204.107 23.2172H214.802V23.0029C214.748 21.2891 214.259 19.8938 213.336 18.8171C212.413 17.7405 211.204 17.2021 209.71 17.2021Z" fill="#333333"/>
<path d="M231.282 29.1498C231.282 28.172 230.886 27.3865 230.095 26.7932C229.315 26.2 228.134 25.7385 226.552 25.4089C224.97 25.0684 223.74 24.6838 222.861 24.2554C221.993 23.8159 221.345 23.2831 220.916 22.6569C220.499 22.0306 220.29 21.2726 220.29 20.3827C220.29 18.9764 220.878 17.8174 222.053 16.9055C223.229 15.9827 224.734 15.5212 226.569 15.5212C228.557 15.5212 230.15 16.0156 231.348 17.0044C232.556 17.9822 233.161 19.2621 233.161 20.8441H231.183C231.183 19.8004 230.744 18.9325 229.865 18.2404C228.997 17.5482 227.898 17.2021 226.569 17.2021C225.272 17.2021 224.229 17.4933 223.438 18.0756C222.658 18.6469 222.268 19.3939 222.268 20.3168C222.268 21.2067 222.592 21.8988 223.24 22.3932C223.899 22.8766 225.091 23.3215 226.816 23.728C228.552 24.1345 229.848 24.5685 230.705 25.0299C231.573 25.4913 232.216 26.0461 232.633 26.6943C233.051 27.3425 233.26 28.1281 233.26 29.0509C233.26 30.556 232.65 31.759 231.43 32.6599C230.222 33.5608 228.64 34.0112 226.684 34.0112C224.608 34.0112 222.921 33.5114 221.625 32.5116C220.34 31.5009 219.697 30.2264 219.697 28.6884H221.674C221.751 29.8419 222.235 30.7428 223.125 31.391C224.026 32.0282 225.212 32.3468 226.684 32.3468C228.057 32.3468 229.167 32.0447 230.013 31.4404C230.859 30.8362 231.282 30.0726 231.282 29.1498Z" fill="#333333"/>
<path d="M29.0666 18.6059C29.0794 18.7113 29.0876 18.8175 29.0911 18.924C29.0911 19.5874 28.4023 21.5364 26.1246 22.173C26.812 22.4769 27.9303 22.4514 28.3921 22.3049C28.8434 24.6918 28.0915 26.5882 27.7366 26.9857C25.8794 29.0684 24.2747 31.3611 25.1997 33.0842C26.2069 34.962 29.1661 33.7605 30.6813 31.1753C30.5517 33.5726 30.0753 36.5589 29.5711 39.0707C29.24 40.7195 30.2543 42.3125 31.6312 42.3125H36.1438C38.1832 38.0439 39.353 33.0669 39.353 27.7542C39.3553 24.6443 38.948 21.5546 38.1471 18.6059H42.2901C44.0107 18.6059 44.5922 15.7704 43.0794 14.7617L33.0007 8.03969L21.975 0.6875L10.9521 8.03969L0.872386 14.7617C-0.641906 15.7704 -0.0602595 18.6059 1.66033 18.6059H5.80467C5.00352 21.5546 4.59622 24.6443 4.59871 27.7542C4.59871 33.0669 5.76821 38.0439 7.80769 42.3125H12.3189C13.6961 42.3125 14.71 40.7195 14.3793 39.0707C13.8748 36.5589 13.3983 33.5726 13.2687 31.1753C14.7843 33.7605 17.7434 34.962 18.7503 33.0842C19.6753 31.3611 18.0706 29.0684 16.2134 26.9857C15.8585 26.5882 15.1066 24.6918 15.5582 22.3049C16.02 22.4514 17.138 22.4769 17.8257 22.173C15.5481 21.5364 14.8593 19.5874 14.8593 18.924C14.8627 18.8175 14.8709 18.7113 14.8838 18.6059C14.9686 17.8198 15.3 15.8533 16.1436 13.9328C15.7294 13.8259 15.3619 13.5333 15.1125 13.1115C14.8631 12.6897 14.7494 12.1688 14.7934 11.6496C14.8757 10.6521 15.5425 9.84875 16.3528 9.76919C16.7042 9.73295 17.0561 9.83188 17.3601 10.0524C17.6641 10.2729 17.9052 10.6041 18.0503 11.0005C18.7581 10.2813 19.5925 9.77634 20.4867 9.52596C20.5868 9.49818 20.6905 9.49703 20.7909 9.52259C20.8913 9.54814 20.9862 9.59982 21.0692 9.67416C21.1522 9.74851 21.2213 9.84382 21.2721 9.95374C21.3229 10.0637 21.3541 10.1857 21.3636 10.3116C21.4863 11.9237 21.53 14.5296 21.4915 14.9462C21.4487 15.4108 19.6381 17.446 19.3389 18.6059C19.3049 18.7202 19.2911 18.8422 19.2986 18.9637C19.3957 19.998 21.1523 20.8938 21.975 20.8938C22.798 20.8938 24.5546 19.998 24.6517 18.9637C24.659 18.8423 24.6454 18.7203 24.6118 18.6059C24.3136 17.446 22.5026 15.4108 22.4589 14.9462C22.42 14.5296 22.4652 11.9237 22.5867 10.3116C22.5964 10.1858 22.6276 10.0639 22.6784 9.95409C22.7292 9.84428 22.7983 9.74906 22.8813 9.67475C22.9642 9.60043 23.0589 9.54874 23.1593 9.52308C23.2596 9.49743 23.3633 9.49841 23.4633 9.52596L29.0666 18.6059ZM27.5989 9.76919C28.4514 9.85353 29.1335 10.7381 29.1646 11.7913L27.5989 9.76919ZM21.9753 17.3729C21.9753 17.6481 21.6583 17.8708 21.2658 17.8708C20.8752 17.8708 20.5568 17.6481 20.5568 17.3729C20.5568 17.0994 20.8752 16.8764 21.2658 16.8764C21.6583 16.8764 21.9753 17.0994 21.9753 17.3729Z" fill="#4079FF"/>
<path d="M12.8637 9.76935L23.2096 6.09204L33.023 11.7915L32.5665 42.3126H12.3189" fill="#4079FF"/>
<path d="M14.5723 25.8971C14.6667 24.7664 14.0001 23.7554 13.0834 23.639C12.1668 23.5226 11.3472 24.3448 11.2528 25.4756C11.1584 26.6063 11.825 27.6173 12.7417 27.7337C13.6583 27.8502 14.478 27.0279 14.5723 25.8971Z" fill="white"/>
<path d="M16.4399 18.9021C15.7607 20.0251 15.7802 22.3968 15.1943 26.1729C14.9734 27.5971 13.926 28.4055 12.7535 28.2941C11.4912 28.1741 10.3689 26.8884 9.5572 25.805C9.13076 25.2359 7.42607 22.6301 7.17171 22.2119C7.03629 24.5541 8.44141 27.545 9.2998 29.8223C9.68331 30.8396 10.8228 34.3814 10.6025 34.4046C14.0916 34.036 17.0198 32.5249 19.1216 31.6346C18.3926 30.2176 16.5098 24.0294 16.4399 18.9021Z" fill="white"/>
<path d="M27.3123 17.8708C26.2856 19.2313 24.9469 22.9191 24.2836 24.2458C23.7987 25.2155 23.5074 26.0005 22.3543 26.2525C21.1906 26.5068 20.0725 25.5023 19.178 24.4299C17.7692 22.7409 17.0671 19.8414 16.8145 19.0108C16.6027 22.5645 18.5668 29.6811 19.437 31.4912C20.6833 30.987 22.9721 29.8375 26.3455 30.6576C25.9499 27.8716 26.3224 21.4799 27.3123 17.8708Z" fill="white"/>
<path d="M36.7881 22.2182C36.4706 22.786 34.9237 26.6226 33.1151 28.0205C32.2933 28.6557 31.4867 29.1988 30.5366 28.7184C29.2113 28.0483 28.8449 26.6304 28.4041 24.3498C28.1573 23.0729 27.9609 19.2416 27.5989 17.9539C26.4925 22.7888 26.4979 28.3093 26.7698 30.7883C28.7502 31.151 31.6542 32.6633 33.8377 34.5102C33.9336 31.4222 34.5094 31.15 35.5318 28.3856C36.9468 24.5595 36.766 23.2347 36.7881 22.2182Z" fill="white"/>
<path d="M23.4725 24.2798C23.762 23.2007 23.2876 22.0363 22.4128 21.6791C21.5379 21.3219 20.594 21.9071 20.3044 22.9863C20.0148 24.0654 20.4893 25.2298 21.3641 25.587C22.2389 25.9442 23.1829 25.3589 23.4725 24.2798Z" fill="white"/>
<path d="M30.8469 28.1074C31.1682 28.2005 31.5046 28.174 31.8136 28.0313C32.1227 27.8885 32.3905 27.636 32.5832 27.3055C32.7759 26.975 32.8848 26.5815 32.8961 26.1746C32.9075 25.7678 32.8208 25.3659 32.647 25.0199C32.4733 24.6738 32.2202 24.3991 31.9198 24.2305C31.6195 24.0618 31.2853 24.0068 30.9596 24.0724C30.634 24.1381 30.3313 24.3213 30.0901 24.5991C29.8488 24.8768 29.6798 25.2366 29.6043 25.6329C29.5031 26.1643 29.5771 26.7235 29.8102 27.1876C30.0432 27.6516 30.4161 27.9825 30.8469 28.1074Z" fill="white"/>
</svg>
