<svg width="26" height="26" viewBox="0 0 26 26" fill="none" xmlns="http://www.w3.org/2000/svg">
<path d="M13 0.75C10.5772 0.75 8.20877 1.46845 6.19427 2.8145C4.17977 4.16054 2.60965 6.07373 1.68248 8.31213C0.755308 10.5505 0.512717 13.0136 0.985386 15.3899C1.45805 17.7661 2.62475 19.9489 4.33795 21.6621C6.05114 23.3752 8.23388 24.542 10.6101 25.0146C12.9864 25.4873 15.4495 25.2447 17.6879 24.3175C19.9263 23.3904 21.8395 21.8202 23.1855 19.8057C24.5316 17.7912 25.25 15.4228 25.25 13C25.25 9.7511 23.9594 6.63526 21.6621 4.33794C19.3647 2.04062 16.2489 0.75 13 0.75ZM7.75001 22.0912C7.88 20.7962 8.48646 19.5955 9.4517 18.7223C10.4169 17.8491 11.6721 17.3656 12.9738 17.3656C14.2754 17.3656 15.5306 17.8491 16.4958 18.7223C17.4611 19.5955 18.0675 20.7962 18.1975 22.0912C16.6113 23.0142 14.8089 23.5005 12.9738 23.5005C11.1386 23.5005 9.33618 23.0142 7.75001 22.0912ZM19.7725 20.9887C19.3995 19.4672 18.5269 18.1147 17.2943 17.1477C16.0617 16.1807 14.5404 15.6552 12.9738 15.6552C11.4071 15.6552 9.88577 16.1807 8.65317 17.1477C7.42056 18.1147 6.54796 19.4672 6.17501 20.9887C4.53711 19.5971 3.36574 17.7363 2.81907 15.6577C2.27241 13.5791 2.37678 11.3828 3.1181 9.36544C3.85943 7.34805 5.20198 5.60675 6.96447 4.37669C8.72696 3.14663 10.8245 2.48706 12.9738 2.48706C15.123 2.48706 17.2206 3.14663 18.983 4.37669C20.7455 5.60675 22.0881 7.34805 22.8294 9.36544C23.5707 11.3828 23.6751 13.5791 23.1284 15.6577C22.5818 17.7363 21.4104 19.5971 19.7725 20.9887ZM13 6C12.1347 6 11.2889 6.25659 10.5694 6.73732C9.84992 7.21805 9.28917 7.90133 8.95803 8.70076C8.6269 9.50019 8.54026 10.3799 8.70907 11.2285C8.87788 12.0772 9.29456 12.8567 9.90641 13.4686C10.5183 14.0804 11.2978 14.4971 12.1465 14.6659C12.9952 14.8347 13.8748 14.7481 14.6742 14.417C15.4737 14.0858 16.157 13.5251 16.6377 12.8056C17.1184 12.0862 17.375 11.2403 17.375 10.375C17.375 9.21468 16.9141 8.10188 16.0936 7.28141C15.2731 6.46094 14.1603 6 13 6ZM13 13C12.4808 13 11.9733 12.846 11.5416 12.5576C11.11 12.2692 10.7735 11.8592 10.5748 11.3795C10.3761 10.8999 10.3242 10.3721 10.4254 9.86289C10.5267 9.35369 10.7767 8.88596 11.1439 8.51884C11.511 8.15173 11.9787 7.90172 12.4879 7.80044C12.9971 7.69915 13.5249 7.75114 14.0045 7.94982C14.4842 8.1485 14.8942 8.48495 15.1826 8.91663C15.4711 9.34831 15.625 9.85582 15.625 10.375C15.625 11.0712 15.3484 11.7389 14.8562 12.2312C14.3639 12.7234 13.6962 13 13 13Z" fill="#4079FF"/>
</svg>
