<svg width="40" height="40" viewBox="0 0 40 40" fill="none" xmlns="http://www.w3.org/2000/svg">
<rect x="0.5" y="0.5" width="39" height="39" rx="19.5" stroke="#E0E5E8"/>
<g clip-path="url(#clip0_3_543)">
<path d="M27.3765 15.3415C26.7989 14.6549 25.7326 14.3749 23.6962 14.3749H16.3039C14.2209 14.3749 13.1365 14.673 12.5611 15.4039C12.0001 16.1166 12.0001 17.1667 12.0001 18.62V21.39C12.0001 24.2055 12.6657 25.6351 16.3039 25.6351H23.6962C25.4622 25.6351 26.4408 25.3879 27.0739 24.7821C27.7231 24.1607 28.0001 23.1463 28.0001 21.39V18.62C28.0001 17.0873 27.9567 16.0311 27.3765 15.3415ZM22.2722 20.3874L18.9154 22.1418C18.8403 22.181 18.7583 22.2005 18.6763 22.2005C18.5835 22.2005 18.4909 22.1755 18.4089 22.1258C18.2545 22.0323 18.1602 21.8649 18.1602 21.6843V18.1869C18.1602 18.0066 18.2542 17.8394 18.4083 17.7458C18.5625 17.6521 18.7542 17.6457 18.9142 17.7288L22.271 19.4719C22.4418 19.5606 22.549 19.7369 22.5493 19.9293C22.5495 20.1218 22.4427 20.2983 22.2722 20.3874Z" fill="#4079FF"/>
</g>
<defs>
<clipPath id="clip0_3_543">
<rect width="16" height="16" fill="white" transform="translate(12.0001 12.002)"/>
</clipPath>
</defs>
</svg>
